<svg width="71" height="71" viewBox="0 0 71 71" fill="none" xmlns="http://www.w3.org/2000/svg">
<mask id="path-1-outside-1_5135_14614" maskUnits="userSpaceOnUse" x="-3" y="-2" width="76" height="76" fill="black">
<rect fill="white" x="-3" y="-2" width="76" height="76"/>
<path d="M68.0312 61.3164C69.9648 63.4648 69.9648 66.6875 68.0312 68.6211C65.8828 70.7695 62.6602 70.7695 60.7266 68.6211L35.375 43.0547L9.80859 68.6211C7.66016 70.7695 4.4375 70.7695 2.50391 68.6211C0.355469 66.6875 0.355469 63.4648 2.50391 61.3164L28.0703 35.75L2.50391 10.1836C0.355469 8.03516 0.355469 4.8125 2.50391 2.87891C4.4375 0.730469 7.66016 0.730469 9.59375 2.87891L35.375 28.6602L60.9414 3.09375C62.875 0.945312 66.0977 0.945312 68.0312 3.09375C70.1797 5.02734 70.1797 8.25 68.0312 10.3984L42.4648 35.75L68.0312 61.3164Z"/>
</mask>
<path d="M68.0312 61.3164C69.9648 63.4648 69.9648 66.6875 68.0312 68.6211C65.8828 70.7695 62.6602 70.7695 60.7266 68.6211L35.375 43.0547L9.80859 68.6211C7.66016 70.7695 4.4375 70.7695 2.50391 68.6211C0.355469 66.6875 0.355469 63.4648 2.50391 61.3164L28.0703 35.75L2.50391 10.1836C0.355469 8.03516 0.355469 4.8125 2.50391 2.87891C4.4375 0.730469 7.66016 0.730469 9.59375 2.87891L35.375 28.6602L60.9414 3.09375C62.875 0.945312 66.0977 0.945312 68.0312 3.09375C70.1797 5.02734 70.1797 8.25 68.0312 10.3984L42.4648 35.75L68.0312 61.3164Z" fill="white"/>
<path d="M68.0312 61.3164L70.2611 59.3095L70.2084 59.2509L70.1526 59.1951L68.0312 61.3164ZM60.7266 68.6211L62.9564 66.6142L62.9079 66.5603L62.8568 66.5087L60.7266 68.6211ZM35.375 43.0547L37.5053 40.9423L35.384 38.8031L33.2537 40.9334L35.375 43.0547ZM2.50391 68.6211L4.73379 66.6142L4.62816 66.4968L4.5108 66.3912L2.50391 68.6211ZM28.0703 35.75L30.1916 37.8713L32.313 35.75L30.1916 33.6287L28.0703 35.75ZM2.50391 2.87891L4.5108 5.10879L4.62816 5.00316L4.73379 4.8858L2.50391 2.87891ZM9.59375 2.87891L7.36387 4.8858L7.41664 4.94444L7.47243 5.00023L9.59375 2.87891ZM35.375 28.6602L33.2537 30.7815L35.375 32.9028L37.4963 30.7815L35.375 28.6602ZM60.9414 3.09375L63.0627 5.21507L63.1185 5.15928L63.1713 5.10065L60.9414 3.09375ZM68.0312 3.09375L65.8014 5.10065L65.907 5.21801L66.0244 5.32363L68.0312 3.09375ZM68.0312 10.3984L70.1436 12.5287L70.1526 12.5198L68.0312 10.3984ZM42.4648 35.75L40.3525 33.6197L38.2132 35.741L40.3435 37.8713L42.4648 35.75ZM65.8014 63.3233C66.7659 64.395 66.6142 65.7955 65.9099 66.4998L70.1526 70.7424C73.3155 67.5795 73.1638 62.5347 70.2611 59.3095L65.8014 63.3233ZM65.9099 66.4998C64.8675 67.5422 63.6393 67.3729 62.9564 66.6142L58.4967 70.628C61.681 74.1661 66.8981 73.9968 70.1526 70.7424L65.9099 66.4998ZM62.8568 66.5087L37.5053 40.9423L33.2447 45.167L58.5963 70.7334L62.8568 66.5087ZM33.2537 40.9334L7.68727 66.4998L11.9299 70.7424L37.4963 45.176L33.2537 40.9334ZM7.68727 66.4998C6.64483 67.5422 5.41664 67.3729 4.73379 66.6142L0.274024 70.628C3.45836 74.1661 8.67548 73.9968 11.9299 70.7424L7.68727 66.4998ZM4.5108 66.3912C3.75208 65.7084 3.58279 64.4802 4.62523 63.4377L0.382586 59.1951C-2.87185 62.4495 -3.04114 67.6666 0.497012 70.851L4.5108 66.3912ZM4.62523 63.4377L30.1916 37.8713L25.949 33.6287L0.382586 59.1951L4.62523 63.4377ZM30.1916 33.6287L4.62523 8.06227L0.382586 12.3049L25.949 37.8713L30.1916 33.6287ZM4.62523 8.06227C3.58279 7.01983 3.75208 5.79164 4.5108 5.10879L0.497012 0.649023C-3.04114 3.83336 -2.87185 9.05048 0.382586 12.3049L4.62523 8.06227ZM4.73379 4.8858C5.47566 4.0615 6.622 4.0615 7.36387 4.8858L11.8236 0.872011C8.69831 -2.60057 3.39934 -2.60057 0.274024 0.872011L4.73379 4.8858ZM7.47243 5.00023L33.2537 30.7815L37.4963 26.5388L11.7151 0.757586L7.47243 5.00023ZM37.4963 30.7815L63.0627 5.21507L58.8201 0.972429L33.2537 26.5388L37.4963 30.7815ZM63.1713 5.10065C63.9132 4.27635 65.0595 4.27635 65.8014 5.10065L70.2611 1.08685C67.1358 -2.38572 61.8368 -2.38572 58.7115 1.08685L63.1713 5.10065ZM66.0244 5.32363C66.7831 6.00648 66.9524 7.23468 65.9099 8.27712L70.1526 12.5198C73.407 9.26532 73.5763 4.04821 70.0381 0.863867L66.0244 5.32363ZM65.9189 8.26818L40.3525 33.6197L44.5772 37.8803L70.1436 12.5287L65.9189 8.26818ZM40.3435 37.8713L65.9099 63.4377L70.1526 59.1951L44.5862 33.6287L40.3435 37.8713Z" fill="#AA182C" mask="url(#path-1-outside-1_5135_14614)"/>
</svg>
