<svg width="58" height="51" viewBox="0 0 58 51" fill="none" xmlns="http://www.w3.org/2000/svg">
<path d="M16.0553 21.7305C16.0553 22.6625 16.0616 23.5251 16.0537 24.3861C16.0474 25.1636 15.7115 25.5058 14.9419 25.5105C13.4864 25.5184 12.0292 25.5168 10.5737 25.5105C9.79309 25.5074 9.45403 25.1731 9.44615 24.4019C9.43669 23.5393 9.44457 22.6751 9.44457 21.7526C8.78697 21.7526 8.15933 21.7021 7.54589 21.7762C7.27307 21.8094 6.9971 22.0585 6.78105 22.2698C6.33477 22.7067 5.84275 22.8029 5.42012 22.4748C4.98487 22.1374 4.93914 21.5697 5.32077 21.0603C5.89952 20.2892 6.6817 19.8539 7.64208 19.8492C11.0468 19.8318 14.4515 19.8082 17.8546 19.8713C18.5359 19.8839 19.2108 20.2687 19.9551 20.5036C21.0985 17.4238 22.7259 14.5521 26.5312 13.4009C26.2836 13.2511 26.1338 13.1912 26.0234 13.0887C23.5191 10.7405 22.8994 7.17972 24.4558 4.11723C25.9761 1.13358 29.4044 -0.522249 32.6766 0.147967C35.9583 0.819761 38.4169 3.58894 38.7039 6.94002C38.7591 7.585 38.7937 8.2221 38.01 8.51069C37.9327 8.53908 37.8507 8.74566 37.8775 8.8387C38.0652 9.47265 38.1409 10.2028 38.5178 10.7027C39.259 11.6852 39.0066 12.7212 38.2134 13.4324C37.8775 13.7337 37.6788 14.0601 37.5353 14.4796C37.1269 15.6686 36.3305 16.2773 34.7851 16.6179C35.5357 17.6556 36.1523 18.7548 37.2325 19.4612C37.9532 19.9328 38.7922 19.9501 39.5775 19.8176C41.1829 19.5448 42.5895 19.7703 43.7139 21.1202C44.3416 19.6032 45.3619 18.5813 46.901 18.146C47.2937 18.0357 47.7116 17.9741 48.1184 17.9631C48.7066 17.9473 49.1009 18.3179 49.104 18.9061C49.1182 21.4246 49.1198 23.9446 49.1025 26.463C49.0993 27.0418 48.6846 27.4203 48.0995 27.384C47.557 27.3493 47.0193 27.2184 46.4421 27.1238C46.4642 27.2121 46.4799 27.3335 46.5273 27.4439C47.5397 29.811 48.5631 32.1717 49.5629 34.5435C49.7001 34.8699 49.8783 34.9582 50.2142 34.9677C54.5178 35.0844 57.7554 38.5585 57.6118 42.8889C57.4762 46.9827 53.9012 50.2265 49.7033 50.0657C46.2197 49.9316 43.2503 47.3075 42.6242 43.8082C42.6069 43.7136 42.588 43.6206 42.5643 43.496H28.3005C27.4521 48.0424 23.8014 50.083 20.6821 50.0121C16.9053 49.9253 14.0525 47.4164 13.2735 43.4613C12.4771 43.4613 11.6587 43.4613 10.8402 43.4613C9.70477 43.4613 9.42723 43.1916 9.4493 42.083C9.50134 39.4668 10.0974 36.9815 11.2849 34.6491C11.5561 34.1145 11.9425 33.6399 12.321 33.069C11.4016 33.069 10.509 33.069 9.61646 33.069C9.0456 33.069 8.47473 33.0722 7.90386 33.069C6.23226 33.0611 5.12995 32.1764 4.74833 30.5411C4.72782 30.4496 4.7089 30.3582 4.68367 30.2352C3.50251 30.2352 2.34343 30.2383 1.18435 30.2352C0.435285 30.232 0.00634651 29.8867 3.85872e-05 29.2984C-0.00469235 28.7071 0.425823 28.3507 1.16858 28.3475C2.32608 28.3428 3.48359 28.3475 4.68052 28.3475V26.4583C4.10176 26.4583 3.53563 26.4662 2.97107 26.4567C2.31505 26.4457 1.90345 26.0893 1.88926 25.5373C1.87507 24.9617 2.2977 24.5754 2.98211 24.5722C4.45816 24.5643 5.93421 24.5643 7.40869 24.5722C8.06314 24.5754 8.47631 24.9397 8.48892 25.4916C8.50312 26.0656 8.07733 26.4425 7.39292 26.4583C7.15795 26.463 6.92298 26.4583 6.64701 26.4583V28.3475C7.20999 28.3475 7.77455 28.3412 8.33753 28.3491C9.02194 28.3586 9.44773 28.7402 9.43353 29.3142C9.41934 29.8662 9.00775 30.2241 8.35172 30.2352C7.78874 30.2446 7.22576 30.2367 6.60601 30.2367C6.78421 30.8723 7.1548 31.1735 7.72724 31.175C11.0531 31.1845 14.3774 31.1861 17.7032 31.175C18.4318 31.1735 18.8749 30.7177 18.8796 29.9813C18.8907 27.6395 18.8907 25.2976 18.8796 22.9558C18.8765 22.1847 18.4349 21.7557 17.6654 21.7368C17.156 21.7242 16.6451 21.7352 16.049 21.7352L16.0553 21.7305ZM29.1679 41.539C28.0608 39.2744 28.3778 39.153 28.3368 37.2054C28.3273 36.7922 28.3368 36.3791 28.3368 35.9675C28.3321 34.1729 27.2266 33.069 25.4288 33.0674C22.7354 33.0658 20.0419 33.1021 17.35 33.0564C15.1249 33.0185 13.6157 33.9868 12.7215 36.0132C11.9457 37.77 11.4568 39.5867 11.3433 41.5405H29.1694L29.1679 41.539ZM28.5181 26.4378C29.1726 25.1778 29.7923 23.984 30.4452 22.7287C30.1692 22.3282 29.786 21.8046 29.4391 21.2606C29.0922 20.7149 29.1962 20.1646 29.663 19.8634C30.1377 19.559 30.6644 19.7104 31.0177 20.256C31.0713 20.338 31.117 20.4264 31.1691 20.5084C32.2587 22.262 33.7837 23.4715 35.7297 24.148C35.9993 24.2411 36.2816 24.2963 36.4851 24.3499C36.7279 23.369 36.9581 22.448 37.1963 21.4861C35.7612 21.0288 34.7835 19.887 33.8988 18.6349C33.5692 18.1697 33.2317 17.7092 32.8832 17.2582C31.7588 15.8042 30.2623 15.1214 28.4346 15.1151C26.2063 15.1072 24.5836 16.1811 23.3551 17.9458C22.0856 19.7719 21.4344 21.8472 21.0228 24.0045C20.8714 24.7977 20.8178 25.6099 20.7168 26.4362H28.5181V26.4378ZM39.0066 26.6365C39.8156 30.1122 40.6577 33.6824 41.4652 37.2606C41.5882 37.8062 41.6638 38.4087 41.5645 38.948C41.4021 39.8342 41.0788 40.6905 40.8217 41.5673C41.626 41.5673 42.5091 41.5484 43.3922 41.5768C43.7691 41.5894 43.9946 41.4696 44.2122 41.1573C45.3587 39.5141 46.5194 37.8804 47.7005 36.2608C47.9528 35.917 47.9844 35.6458 47.8125 35.2531C46.4642 32.1591 45.1395 29.054 43.807 25.9537C43.7313 25.7786 43.6445 25.6067 43.6256 25.5673C42.0534 25.93 40.5568 26.2769 39.0051 26.6349L39.0066 26.6365ZM36.7043 6.61358C36.4646 3.96899 33.7758 1.78645 30.9751 1.89526C28.0214 2.01038 25.5471 4.54301 25.503 7.49354C25.462 10.2517 27.6697 12.9026 30.2244 13.0918C30.2244 12.2481 30.2181 11.4092 30.2244 10.5687C30.2465 8.30253 31.9181 6.63409 34.189 6.61516C35.0121 6.60728 35.8369 6.61516 36.7043 6.61516V6.61358ZM30.1929 37.7511H33.9808C33.9808 35.9659 33.9887 34.2202 33.9745 32.4745C33.9729 32.1843 33.8956 31.8894 33.8215 31.6056C33.3059 29.6328 31.5333 28.3601 29.2357 28.3459C26.5438 28.3286 23.8503 28.3412 21.1584 28.3428C21.0464 28.3428 20.9345 28.3601 20.8178 28.3696C20.7768 29.3174 20.7358 30.2273 20.6947 31.175C22.3253 31.175 23.9938 31.1672 25.6622 31.1766C27.993 31.1908 29.9012 32.8466 30.1787 35.1664C30.2781 35.999 30.1945 36.8522 30.1945 37.7495L30.1929 37.7511ZM35.8905 37.729C36.5592 38.1768 37.2247 38.4843 37.6946 38.9764C38.1566 39.4621 38.42 40.1354 38.789 40.7568C39.6422 40.0172 39.8771 38.989 39.6422 37.9151C38.8253 34.1745 37.9406 30.4496 37.0701 26.7217C37.037 26.5813 36.8951 26.3779 36.7768 26.3589C34.979 26.0546 33.3737 25.3229 31.8424 24.1354C31.404 24.9444 30.9924 25.7045 30.5556 26.5103C30.7811 26.5971 30.8663 26.6428 30.9562 26.6649C34.0675 27.4313 35.8921 29.7668 35.8905 32.9791C35.8905 34.6097 35.8905 36.2403 35.8905 37.7274V37.729ZM44.5324 43.4818C44.5292 43.5638 44.515 43.6237 44.5245 43.6805C45.026 46.4544 47.9213 48.5423 50.7126 48.1449C53.8302 47.7018 56.0254 44.9878 55.7037 41.9711C55.3852 38.9795 52.7374 36.6535 49.8673 36.849C49.7411 36.8569 49.5661 36.8884 49.503 36.9752C48.929 37.7511 48.3739 38.5427 47.7195 39.4589C50.2363 38.2257 52.4204 38.7871 53.4392 40.8057C54.3727 42.6555 53.6394 44.8979 51.8023 45.863C49.973 46.8234 47.2921 46.1832 46.3554 43.4834H44.5324V43.4818ZM15.2463 43.4581C15.5128 46.1847 18.2662 48.3531 21.1568 48.1702C23.7446 48.0062 26.3277 45.6407 26.2646 43.4581C25.8736 43.4581 25.4793 43.4865 25.0914 43.4503C24.6167 43.4061 24.3928 43.567 24.1878 44.029C23.5759 45.4041 22.4547 46.1532 20.9565 46.2289C19.5073 46.3014 18.2331 45.7432 17.6196 44.4375C17.1623 43.466 16.552 43.373 15.7036 43.4566C15.568 43.4692 15.4308 43.4581 15.2463 43.4581ZM36.8509 12.0542C36.4504 10.8084 36.0908 9.68712 35.7123 8.51069C35.1888 8.51069 34.5611 8.47915 33.9382 8.51858C32.981 8.57693 32.1689 9.34807 32.1326 10.3021C32.0837 11.5748 32.12 12.8505 32.12 14.202C32.8343 14.3597 33.5282 14.5821 34.2394 14.6562C35.2629 14.7618 35.7186 14.2966 35.9079 13.2684C35.9678 12.9452 36.2359 12.6455 36.4488 12.368C36.5734 12.2056 36.7815 12.1062 36.8509 12.0542ZM30.4421 39.6923C30.8931 40.8703 31.8582 41.5484 33.0567 41.5658C33.9792 41.58 34.9018 41.5737 35.8243 41.5658C36.1492 41.5626 36.474 41.5311 36.7941 41.5121C36.7894 40.5234 36.1933 39.7396 35.3102 39.7081C33.708 39.6497 32.1042 39.6907 30.4436 39.6907L30.4421 39.6923ZM42.7898 23.6276C42.1811 21.8283 41.3295 21.259 40.0191 21.7211C38.9278 22.1058 38.2434 23.4857 38.6345 24.5549C40.0853 24.6132 41.4541 24.2947 42.7898 23.6276ZM47.1943 25.2503V20.0983C46.1267 20.357 45.3366 21.464 45.3366 22.672C45.3366 23.8784 46.1172 24.9775 47.1943 25.2503ZM48.4732 41.5689C49.0142 41.5689 49.4604 41.5626 49.9051 41.5689C50.5864 41.5815 51.0122 41.96 50.998 42.534C50.9838 43.086 50.5738 43.4424 49.9193 43.455C49.4604 43.4645 49.0031 43.4566 48.4906 43.4566C49.0126 44.2593 49.779 44.5526 50.5691 44.3239C51.3907 44.0858 51.9363 43.384 51.9489 42.5482C51.9631 41.7061 51.4427 40.9839 50.6369 40.7237C49.8231 40.4603 49.0583 40.7331 48.4717 41.5689H48.4732ZM14.144 21.7747H11.3638V23.585H14.144V21.7747ZM22.2985 43.5102H19.2345C19.9835 44.767 21.8412 44.5336 22.2985 43.5102Z" fill="white"/>
</svg>
