<?xml version="1.0" encoding="UTF-8"?>
<!DOCTYPE svg PUBLIC "-//W3C//DTD SVG 1.1//EN" "http://www.w3.org/Graphics/SVG/1.1/DTD/svg11.dtd">
<!-- Creator: CorelDRAW 2020 (64-Bit) -->
<svg xmlns="http://www.w3.org/2000/svg" xml:space="preserve" width="215.9mm" height="279.4mm" version="1.1" style="shape-rendering:geometricPrecision; text-rendering:geometricPrecision; image-rendering:optimizeQuality; fill-rule:evenodd; clip-rule:evenodd"
viewBox="0 0 21590 27940"
 xmlns:xlink="http://www.w3.org/1999/xlink"
 xmlns:xodm="http://www.corel.com/coreldraw/odm/2003">
 <defs>
  <style type="text/css">
   <![CDATA[
    .fil0 {fill:#2B2A29;fill-rule:nonzero}
   ]]>
  </style>
 </defs>
 <g id="Layer_x0020_1">
  <metadata id="CorelCorpID_0Corel-Layer"/>
  <path class="fil0" d="M19721.09 12999.23c0,24.65 0.17,47.48 -0.04,70.26 -0.16,20.57 -9.05,29.62 -29.41,29.75 -38.51,0.21 -77.07,0.16 -115.58,0 -20.65,-0.08 -29.62,-8.93 -29.83,-29.33 -0.25,-22.83 -0.04,-45.69 -0.04,-70.1 -17.4,0 -34.01,-1.34 -50.24,0.62 -7.22,0.88 -14.52,7.47 -20.24,13.06 -11.8,11.56 -24.82,14.11 -36,5.43 -11.52,-8.93 -12.73,-23.95 -2.63,-37.43 15.31,-20.4 36,-31.92 61.42,-32.04 90.08,-0.46 180.16,-1.09 270.2,0.58 18.03,0.34 35.88,10.52 55.58,16.73 30.25,-81.48 73.31,-157.46 173.99,-187.92 -6.55,-3.97 -10.51,-5.55 -13.44,-8.26 -66.26,-62.13 -82.65,-156.34 -41.47,-237.37 40.22,-78.94 130.92,-122.76 217.5,-105.02 86.83,17.77 151.88,91.04 159.47,179.7 1.46,17.07 2.37,33.93 -18.36,41.56 -2.05,0.75 -4.22,6.22 -3.51,8.68 4.97,16.77 6.97,36.09 16.95,49.32 19.61,25.99 12.93,53.4 -8.06,72.22 -8.89,7.97 -14.14,16.61 -17.94,27.71 -10.81,31.46 -31.88,47.56 -72.77,56.57 19.86,27.46 36.18,56.54 64.76,75.23 19.07,12.48 41.27,12.94 62.04,9.43 42.48,-7.21 79.7,-1.25 109.45,34.47 16.6,-40.14 43.6,-67.18 84.32,-78.69 10.39,-2.92 21.45,-4.55 32.21,-4.84 15.56,-0.42 26,9.38 26.08,24.95 0.37,66.63 0.42,133.31 -0.04,199.94 -0.09,15.31 -11.06,25.33 -26.54,24.37 -14.35,-0.92 -28.58,-4.38 -43.85,-6.89 0.58,2.34 1,5.55 2.25,8.47 26.79,62.62 53.87,125.08 80.32,187.84 3.63,8.63 8.35,10.97 17.23,11.22 113.87,3.09 199.53,95.01 195.73,209.58 -3.59,108.32 -98.18,194.14 -209.25,189.89 -92.17,-3.55 -170.73,-72.98 -187.3,-165.57 -0.45,-2.5 -0.95,-4.96 -1.58,-8.26l-377.39 0c-22.44,120.29 -119.04,174.29 -201.57,172.41 -99.93,-2.3 -175.41,-68.68 -196.02,-173.32 -21.07,0 -42.72,0 -64.38,0 -30.04,0 -37.38,-7.14 -36.8,-36.47 1.38,-69.22 17.15,-134.98 48.57,-196.69 7.17,-14.14 17.4,-26.7 27.41,-41.81 -24.32,0 -47.94,0 -71.56,0 -15.1,0 -30.2,0.09 -45.31,0 -44.23,-0.21 -73.39,-23.61 -83.49,-66.88 -0.54,-2.42 -1.04,-4.84 -1.71,-8.09 -31.25,0 -61.92,0.08 -92.59,0 -19.81,-0.09 -31.16,-9.23 -31.33,-24.79 -0.13,-15.64 11.26,-25.07 30.92,-25.15 30.62,-0.12 61.25,0 92.92,0l0 -49.98c-15.32,0 -30.29,0.2 -45.23,-0.05 -17.36,-0.29 -28.25,-9.72 -28.62,-24.32 -0.38,-15.23 10.8,-25.45 28.91,-25.54 39.05,-0.21 78.11,-0.21 117.12,0 17.32,0.09 28.25,9.73 28.58,24.33 0.38,15.18 -10.89,25.16 -29,25.58 -6.21,0.12 -12.43,0 -19.73,0l0 49.98c14.89,0 29.83,-0.17 44.73,0.04 18.1,0.25 29.37,10.35 28.99,25.53 -0.37,14.6 -11.26,24.07 -28.62,24.37 -14.89,0.24 -29.79,0.04 -46.19,0.04 4.72,16.81 14.52,24.78 29.67,24.82 87.99,0.25 175.95,0.29 263.95,0 19.27,-0.04 31,-12.1 31.12,-31.58 0.29,-61.95 0.29,-123.92 0,-185.88 -0.08,-20.4 -11.76,-31.75 -32.12,-32.25 -13.48,-0.33 -27,-0.04 -42.77,-0.04l0.16 -0.12zm346.93 524.09c-29.28,-59.92 -20.89,-63.13 -21.98,-114.66 -0.25,-10.94 0,-21.87 0,-32.76 -0.12,-47.48 -29.37,-76.69 -76.94,-76.73 -71.26,-0.04 -142.53,0.92 -213.75,-0.29 -58.87,-1 -98.8,24.62 -122.46,78.23 -20.53,46.48 -33.46,94.55 -36.47,146.24l471.64 0 -0.04 -0.03zm-17.18 -399.55c17.31,-33.33 33.7,-64.92 50.98,-98.13 -7.3,-10.6 -17.44,-24.45 -26.62,-38.85 -9.18,-14.44 -6.43,-29 5.92,-36.97 12.56,-8.05 26.5,-4.04 35.84,10.39 1.42,2.17 2.63,4.51 4.01,6.68 28.83,46.4 69.18,78.4 120.67,96.3 7.13,2.46 14.6,3.92 19.98,5.34 6.43,-25.95 12.52,-50.32 18.82,-75.77 -37.97,-12.1 -63.84,-42.31 -87.25,-75.44 -8.72,-12.31 -17.65,-24.49 -26.87,-36.42 -29.75,-38.47 -69.34,-56.54 -117.69,-56.71 -58.96,-0.21 -101.89,28.21 -134.39,74.9 -33.59,48.31 -50.82,103.22 -61.71,160.3 -4.01,20.99 -5.43,42.48 -8.1,64.34l206.41 0 0 0.04zm277.5 5.26c21.4,91.95 43.68,186.41 65.05,281.09 3.25,14.43 5.25,30.37 2.63,44.64 -4.3,23.45 -12.86,46.11 -19.66,69.3 21.28,0 44.65,-0.5 68.01,0.26 9.98,0.33 15.94,-2.84 21.7,-11.1 30.33,-43.48 61.04,-86.71 92.29,-129.56 6.68,-9.09 7.52,-16.27 2.97,-26.66 -35.68,-81.86 -70.73,-164.02 -105.98,-246.04 -2,-4.63 -4.3,-9.18 -4.8,-10.22 -41.6,9.6 -81.2,18.78 -122.25,28.25l0.04 0.04zm-60.92 -529.77c-6.34,-69.97 -77.48,-127.72 -151.58,-124.84 -78.14,3.04 -143.61,70.05 -144.77,148.12 -1.09,72.98 57.32,143.11 124.91,148.12 0,-22.32 -0.17,-44.52 0,-66.76 0.58,-59.96 44.81,-104.1 104.89,-104.6 21.78,-0.21 43.6,0 66.55,0l0 -0.04zm-172.28 823.83l100.22 0c0,-47.23 0.21,-93.42 -0.16,-139.61 -0.05,-7.67 -2.09,-15.48 -4.05,-22.99 -13.64,-52.19 -60.54,-85.86 -121.33,-86.23 -71.22,-0.46 -142.48,-0.13 -213.71,-0.08 -2.96,0 -5.92,0.45 -9.01,0.7 -1.08,25.07 -2.17,49.15 -3.25,74.22 43.14,0 87.28,-0.21 131.43,0.04 61.67,0.38 112.14,44.19 119.49,105.57 2.63,22.03 0.41,44.6 0.41,68.34l-0.04 0.04zm150.75 -0.58c17.69,11.85 35.3,19.98 47.73,33 12.23,12.85 19.2,30.67 28.96,47.11 22.57,-19.57 28.79,-46.77 22.57,-75.19 -21.61,-98.97 -45.02,-197.52 -68.05,-296.15 -0.87,-3.71 -4.63,-9.09 -7.76,-9.59 -47.57,-8.06 -90.04,-27.42 -130.55,-58.84 -11.6,21.41 -22.49,41.52 -34.05,62.84 5.96,2.3 8.22,3.51 10.6,4.09 82.32,20.28 130.59,82.06 130.55,167.05 0,43.15 0,86.29 0,125.64l0 0.04zm228.65 152.21c-0.08,2.17 -0.46,3.75 -0.21,5.26 13.27,73.39 89.88,128.63 163.73,118.12 82.49,-11.73 140.57,-83.54 132.06,-163.35 -8.43,-79.15 -78.49,-140.7 -154.43,-135.52 -3.34,0.2 -7.97,1.04 -9.63,3.33 -15.19,20.53 -29.88,41.48 -47.19,65.72 66.59,-32.63 124.37,-17.78 151.33,35.63 24.7,48.95 5.3,108.28 -43.31,133.81 -48.4,25.41 -119.33,8.47 -144.12,-62.96l-48.23 0 0 -0.04zm-774.85 -0.63c7.05,72.14 79.9,129.51 156.38,124.68 68.47,-4.34 136.82,-66.93 135.15,-124.68 -10.35,0 -20.78,0.75 -31.05,-0.2 -12.55,-1.17 -18.48,3.08 -23.9,15.31 -16.19,36.38 -45.86,56.2 -85.5,58.2 -38.34,1.92 -72.05,-12.85 -88.29,-47.4 -12.1,-25.7 -28.24,-28.16 -50.69,-25.95 -3.59,0.34 -7.22,0.04 -12.1,0.04zm571.61 -830.88c-10.59,-32.97 -20.11,-62.63 -30.12,-93.76 -13.85,0 -30.46,-0.83 -46.94,0.21 -25.33,1.54 -46.82,21.95 -47.78,47.19 -1.29,33.67 -0.33,67.43 -0.33,103.18 18.9,4.18 37.26,10.06 56.08,12.02 27.08,2.8 39.13,-9.51 44.14,-36.72 1.59,-8.55 8.68,-16.48 14.31,-23.82 3.3,-4.3 8.81,-6.93 10.64,-8.3zm-169.56 731.24c11.93,31.17 37.46,49.11 69.17,49.57 24.41,0.38 48.82,0.21 73.23,0 8.6,-0.08 17.19,-0.91 25.66,-1.42 -0.13,-26.16 -15.9,-46.89 -39.26,-47.73 -42.39,-1.54 -84.83,-0.46 -128.76,-0.46l-0.04 0.04zm326.7 -425.03c-16.11,-47.61 -38.64,-62.67 -73.31,-50.44 -28.88,10.18 -46.99,46.68 -36.64,74.97 38.39,1.55 74.6,-6.88 109.95,-24.53zm116.53 42.93l0 -136.31c-28.25,6.84 -49.15,36.13 -49.15,68.1 0,31.92 20.65,61 49.15,68.21zm33.84 431.76c14.31,0 26.12,-0.17 37.88,0 18.03,0.33 29.3,10.34 28.92,25.53 -0.38,14.61 -11.22,24.04 -28.54,24.37 -12.14,0.25 -24.24,0.04 -37.8,0.04 13.81,21.24 34.09,29 54.99,22.95 21.74,-6.3 36.18,-24.87 36.51,-46.98 0.38,-22.28 -13.39,-41.39 -34.71,-48.28 -21.54,-6.97 -41.77,0.25 -57.29,22.37l0.04 0zm-908.29 -523.72l-73.55 0 0 47.9 73.55 0 0 -47.9zm215.76 575.08l-81.07 0c19.82,33.25 68.97,27.08 81.07,0z"/>
 </g>
</svg>
