<svg width="58" height="41" viewBox="0 0 58 41" fill="none" xmlns="http://www.w3.org/2000/svg">
<path d="M14.6521 32.5093C14.3271 31.6326 14.0051 30.7558 13.6544 29.805C13.8736 29.805 14.0172 29.811 14.1608 29.805C15.7904 29.7188 16.9513 28.5761 16.912 27.0992C16.8712 25.5936 15.7027 24.5551 14.0399 24.5551C11.325 24.5536 8.60866 24.5551 5.8938 24.5551H5.22717V23.8885C5.22717 21.2492 5.22717 18.6084 5.22717 15.9692C5.22717 15.7802 5.28914 15.5429 5.19845 15.4144C5.01101 15.1468 4.77822 14.8339 4.49404 14.7311C4.10555 14.5906 3.75183 14.8233 3.61125 15.233C3.5402 15.4401 3.52962 15.6759 3.52811 15.8981C3.52358 18.7082 3.52207 21.5168 3.52509 24.3269C3.52509 25.6617 4.12218 26.2542 5.46148 26.2557C8.34716 26.2572 11.2313 26.2557 14.117 26.2587C14.7912 26.2587 15.1857 26.5928 15.1993 27.1461C15.2144 27.725 14.8139 28.0742 14.1079 28.0757C11.1104 28.0787 8.11134 28.0893 5.1138 28.0712C3.18648 28.0591 1.71266 26.5868 1.70661 24.6549C1.6915 19.7527 1.69906 14.849 1.70208 9.94686C1.70208 9.29233 2.06486 8.8721 2.60149 8.86152C3.16381 8.85094 3.51451 9.27117 3.52207 9.97407C3.52811 10.5016 3.50241 11.0322 3.53869 11.5567C3.57195 12.0571 3.92869 12.3624 4.39276 12.3579C4.86439 12.3534 5.20148 12.045 5.21508 11.5371C5.23473 10.8402 5.25438 10.1388 5.19845 9.445C5.08356 8.03617 3.66114 6.9599 2.26894 7.18211C1.04604 7.37711 0.367323 8.16013 0 9.28024V25.3472C0.250929 26.3812 0.619763 27.3532 1.36953 28.1468C2.25836 29.0885 3.36184 29.5979 4.63764 29.7854C3.968 31.8049 3.31044 33.7881 2.65591 35.7714C2.20696 37.1303 1.75348 38.4862 1.32115 39.8497C1.17301 40.3183 1.39975 40.7401 1.82905 40.9018C2.24928 41.0605 2.69522 40.867 2.90231 40.4226C2.97335 40.2699 3.01416 40.1037 3.06707 39.9419C4.05416 36.958 5.03822 33.974 6.02833 30.9901C6.33217 30.0756 6.73727 29.7838 7.69262 29.7793C8.61622 29.7748 9.54133 29.7778 10.4649 29.7793C11.582 29.7793 11.9191 30.0151 12.3091 31.0702C13.4081 34.036 14.504 37.0018 15.6075 39.9646C15.6982 40.208 15.8009 40.4649 15.9642 40.6599C16.3587 41.1316 17.0949 41.0378 17.3005 40.4664C17.3957 40.2004 17.3549 39.8331 17.2536 39.5549C16.4026 37.2014 15.5228 34.8568 14.6536 32.5093H14.6521Z" fill="white"/>
<path d="M44.3954 19.5725C46.0294 19.5604 47.0241 18.0367 46.4043 16.5266C45.8949 15.2856 45.0303 14.3408 43.7922 13.845C43.0924 13.5654 42.3078 13.4384 41.5505 13.3734C40.6224 13.2948 39.6837 13.3553 38.7132 13.3553C38.7132 12.5571 38.686 11.8406 38.7298 11.1302C38.7419 10.9246 38.9158 10.66 39.0956 10.5467C39.9013 10.0327 40.3805 9.34191 40.4123 8.37447C40.4274 7.9225 40.4334 7.46901 40.4123 7.01704C40.379 6.26727 39.9149 5.776 39.1667 5.74879C38.3005 5.71705 37.4313 5.71856 36.5652 5.74879C35.829 5.776 35.3514 6.28239 35.3121 7.01855C35.2924 7.39494 35.306 7.77285 35.306 8.14924C35.3075 9.22098 35.7565 10.0297 36.6982 10.5633C36.8252 10.6359 36.99 10.7855 36.9945 10.9049C37.0202 11.7076 37.0081 12.5103 37.0081 13.325H31.6328C31.6328 13.0953 31.6328 12.8942 31.6328 12.6932C31.6328 10.9019 31.6691 9.10912 31.6116 7.32087C31.5935 6.76308 31.4015 6.17355 31.1445 5.67321C30.8906 5.18344 30.4295 4.80554 30.1045 4.34601C29.9367 4.10717 29.7856 3.80334 29.769 3.52066C29.7236 2.7316 29.7554 1.938 29.7523 1.14591C29.7493 0.400682 29.4379 -0.00745497 28.8847 0.000103124C28.3526 0.00766122 28.0563 0.403705 28.0533 1.11568C28.0502 1.81405 28.017 2.51392 28.0638 3.20776C28.1031 3.78217 27.9354 4.19333 27.5015 4.58333C26.5583 5.42984 26.0897 6.4789 26.1411 7.7925C26.2061 9.43109 26.1562 11.0727 26.1562 12.7128V13.322H20.7854C20.7854 12.5632 20.7627 11.8315 20.8005 11.1029C20.8111 10.911 20.9638 10.6555 21.1285 10.5542C21.7014 10.205 22.2033 9.76062 22.3182 9.11214C22.4527 8.34424 22.4754 7.54308 22.427 6.76309C22.3907 6.17507 21.8995 5.77751 21.3069 5.75635C20.3848 5.72309 19.4597 5.72158 18.5376 5.75635C17.9269 5.77902 17.4795 6.21588 17.4024 6.82355C17.348 7.25134 17.3616 7.6882 17.3601 8.12203C17.3601 9.21342 17.8105 10.0418 18.781 10.5814C18.9065 10.651 19.0591 10.8127 19.0622 10.9367C19.0879 11.7227 19.0758 12.5118 19.0758 13.3537C18.0373 13.3537 17.0608 13.322 16.0858 13.3598C14.0511 13.4399 12.5274 14.3922 11.5842 16.1941C10.6848 17.9128 11.7232 19.5725 13.6672 19.5741C17.0048 19.5771 20.3425 19.5741 23.6786 19.5741H24.3211C24.3211 20.2467 24.315 20.8468 24.3211 21.4469C24.3377 22.9601 25.3641 23.9895 26.8833 24.0182C27.2551 24.0258 27.6285 24.0182 28.0109 24.0182C28.0351 24.1467 28.0593 24.2177 28.0593 24.2888C28.0623 27.9091 28.0669 31.5294 28.0487 35.1498C28.0487 35.3312 27.8915 35.5609 27.7389 35.6864C26.5764 36.6463 25.3974 37.5865 24.2228 38.5343C23.6257 39.0165 23.4519 39.4987 23.656 40.1033C23.854 40.6883 24.2954 40.9544 25.089 40.9544C27.6345 40.9544 30.1801 40.9529 32.7257 40.9514C33.5495 40.9514 33.9743 40.6914 34.1874 40.0625C34.3885 39.467 34.2252 39.0271 33.5828 38.5071C32.44 37.5835 31.2972 36.6569 30.1363 35.7544C29.8536 35.5337 29.7523 35.3055 29.7538 34.9487C29.7674 31.4977 29.7614 28.0482 29.7614 24.5972V24.0197C30.2149 24.0197 30.626 24.0303 31.0342 24.0182C32.4581 23.9729 33.4739 22.954 33.5027 21.5316C33.5193 20.7214 33.5072 19.9096 33.5072 19.0994C33.5057 18.1063 33.2729 17.875 32.2722 17.875C26.1063 17.875 19.9404 17.875 13.776 17.875C12.9507 17.875 12.7542 17.5439 13.1729 16.8244C13.8577 15.6499 14.8977 15.0619 16.2521 15.0588C19.7968 15.0513 23.3416 15.0558 26.8863 15.0558C31.7703 15.0558 36.6529 15.0558 41.5369 15.0558C42.8898 15.0558 43.9389 15.6212 44.6372 16.7851C45.1043 17.5636 44.9139 17.8735 43.9963 17.875C41.62 17.875 39.2453 17.872 36.869 17.878C36.2614 17.878 35.8759 18.2227 35.8759 18.726C35.8759 19.2294 36.2598 19.5725 36.8675 19.5741C39.3753 19.5801 41.8831 19.5907 44.3908 19.571L44.3954 19.5725ZM31.7386 39.213H26.1108C27.0889 38.4239 27.9868 37.7014 28.9164 36.9531C29.837 37.6908 30.7409 38.4149 31.7386 39.213ZM26.0277 19.6028H31.7991C31.7991 20.2966 31.8248 20.9693 31.79 21.6374C31.7688 22.0425 31.4892 22.3025 31.081 22.3071C29.651 22.3237 28.2195 22.3267 26.7896 22.3101C26.3255 22.3055 26.0549 22.0093 26.0353 21.5558C26.008 20.9209 26.0277 20.283 26.0277 19.6028ZM20.409 8.95644C20.1898 9.10005 19.7681 9.13028 19.5323 9.01691C18.8823 8.70551 19.1045 8.06761 19.0727 7.46296H20.7703C20.7824 8.0147 20.9547 8.60121 20.409 8.95644ZM29.9171 13.3311H27.8598V12.7158C27.8598 11.0213 27.8295 9.32528 27.8794 7.63227C27.893 7.14855 28.0744 6.63611 28.2997 6.19774C28.6171 5.57798 29.1507 5.58251 29.5105 6.19169C29.707 6.52274 29.8929 6.92029 29.9005 7.29064C29.9383 9.28446 29.9186 11.2798 29.9186 13.3311H29.9171ZM38.3353 8.97005C38.0965 9.10761 37.649 9.10912 37.4087 8.97307C36.8282 8.64354 37.0293 8.03587 37.0187 7.47203H38.6996C38.689 8.02529 38.9203 8.63296 38.3353 8.97005Z" fill="white"/>
<path d="M54.6885 34.0039C54.226 32.6042 53.7649 31.2029 53.3009 29.7956C56.238 29.3663 58.0413 26.8872 57.9582 24.1935C57.8524 20.7848 57.9325 17.3686 57.9325 13.9568C57.9325 12.5435 57.9552 11.1286 57.9234 9.71523C57.8856 8.02222 56.3181 6.84466 54.6765 7.24071C53.4687 7.53245 52.7083 8.55431 52.7068 9.92837C52.7008 14.566 52.7053 19.2052 52.7038 23.8428V24.5548C52.4332 24.5548 52.2307 24.5548 52.0266 24.5548C49.2361 24.5548 46.4457 24.5487 43.6552 24.5578C42.3401 24.5624 41.2563 25.4784 41.0598 26.7134C40.8497 28.0376 41.5344 29.194 42.8344 29.6233C43.2698 29.7669 43.7429 29.7926 44.2433 29.8802C44.0392 30.4395 43.8366 31.0019 43.6295 31.5611C42.6228 34.279 41.613 36.9954 40.6124 39.7148C40.4128 40.2575 40.5957 40.7049 41.0522 40.8894C41.4967 41.0692 41.9592 40.847 42.1905 40.3346C42.2449 40.2152 42.2827 40.0882 42.328 39.9642C43.4542 36.9289 44.5773 33.8936 45.708 30.8598C45.9998 30.0767 46.4139 29.788 47.2408 29.782C48.2022 29.7744 49.1636 29.7789 50.125 29.7805C51.233 29.7805 51.5837 30.0374 51.9344 31.1001C52.8489 33.8694 53.7634 36.6402 54.6795 39.408C54.7974 39.7647 54.8548 40.1744 55.074 40.4555C55.263 40.6974 55.653 40.9286 55.9326 40.906C56.182 40.8848 56.4798 40.5477 56.6113 40.2787C56.7035 40.0882 56.5886 39.7692 56.5085 39.5259C55.9084 37.6832 55.2932 35.8436 54.6855 34.0039H54.6885ZM43.8351 28.0784C43.3816 28.0784 43.0098 27.9741 42.8239 27.5236C42.5623 26.8887 42.9932 26.2735 43.7338 26.2599C44.8086 26.2418 45.8834 26.2539 46.9581 26.2539C48.8053 26.2539 50.6525 26.2554 52.5012 26.2539C53.7997 26.2523 54.4074 25.6492 54.4074 24.3537C54.4104 19.6602 54.4074 14.9651 54.4089 10.2715C54.4089 10.0826 54.4013 9.8936 54.418 9.70616C54.4633 9.19826 54.7732 8.92616 55.2569 8.86721C55.7089 8.81128 56.1367 9.16953 56.2153 9.64721C56.2425 9.81348 56.2319 9.98581 56.2319 10.1551C56.2319 12.5677 56.2319 14.9817 56.2319 17.3943C56.2319 19.7509 56.2349 22.1075 56.2319 24.4641C56.2289 26.5834 54.7581 28.0708 52.6584 28.0738C49.7168 28.0784 46.7767 28.0708 43.8351 28.0784Z" fill="white"/>
</svg>
