<svg width="39" height="38" viewBox="0 0 39 38" fill="none" xmlns="http://www.w3.org/2000/svg">
<path d="M17.8729 0C18.6648 0 19.4559 0 20.2478 0C20.8824 0.0820776 21.5212 0.142155 22.1515 0.248772C25.7592 0.862238 28.9489 2.3701 31.6733 4.81381C34.9477 7.74999 36.9969 11.3876 37.7677 15.7276C37.8904 16.4181 37.9631 17.1178 38.0596 17.8142V20.1894C38.0037 20.6413 37.9563 21.0948 37.892 21.5458C37.3015 25.6768 35.6042 29.2924 32.6506 32.2379C27.7763 37.0999 21.8935 38.9082 15.14 37.5746C10.5483 36.6675 6.82135 34.2408 3.98275 30.5253C0.799784 26.3579 -0.440573 21.6287 0.240524 16.435C0.786247 12.271 2.58333 8.68077 5.53023 5.6879C8.37138 2.80333 11.7929 0.994238 15.7873 0.291924C16.4785 0.170077 17.1774 0.0956162 17.8729 0ZM24.1085 8.66638C22.7573 8.66638 21.4442 8.597 20.1421 8.68161C17.922 8.82546 16.4972 10.1539 16.201 12.354C16.0699 13.3279 16.1325 14.328 16.108 15.3155C16.1046 15.4585 16.108 15.6007 16.108 15.7894H13.9589V19.6741H16.1122V30.6615H20.698V19.6589H23.7862C23.9198 18.3566 24.0501 17.0865 24.1855 15.7614H20.698C20.698 14.9331 20.6819 14.1546 20.703 13.377C20.72 12.766 21.0762 12.4428 21.7099 12.4318C22.3774 12.42 23.045 12.4301 23.7134 12.4276C23.8428 12.4276 23.9731 12.4149 24.1094 12.4073V8.66723L24.1085 8.66638Z" fill="#8D8C8E"/>
</svg>
