<svg width="174" height="50" viewBox="0 0 174 50" fill="none" xmlns="http://www.w3.org/2000/svg">
<path d="M6.48838 49.5H166.745C170.005 49.5 172.655 46.8979 172.655 43.75V6.25C172.655 3.10206 170.005 0.500002 166.745 0.500002H6.48838C3.22848 0.500002 0.578125 3.10206 0.578125 6.25V43.75C0.578125 46.8979 3.22848 49.5 6.48838 49.5Z" fill="black" stroke="#C0C1C1" stroke-width="0.8"/>
<path d="M13.4559 9.42342C13.0793 9.8078 12.8613 10.4062 12.8613 11.1812V38.825C12.8613 39.6 13.0793 40.1984 13.4559 40.5828L13.5488 40.6672L29.4366 25.1828V24.8172L13.5488 9.3328L13.4559 9.42342Z" fill="url(#paint0_linear_5118_13337)"/>
<path d="M34.7266 30.3469L29.4365 25.1828V24.8172L34.733 19.6531L34.8516 19.7203L41.124 23.2C42.9141 24.1875 42.9141 25.8125 41.124 26.8062L34.8516 30.2797L34.7266 30.3469Z" fill="url(#paint1_linear_5118_13337)"/>
<path d="M34.8519 30.2797L29.4368 25L13.4561 40.5828C14.0506 41.1922 15.0202 41.2656 16.1227 40.6562L34.8519 30.2797Z" fill="url(#paint2_linear_5118_13337)"/>
<path d="M34.8519 19.7203L16.1227 9.34376C15.0202 8.74063 14.0506 8.81407 13.4561 9.42344L29.4368 25L34.8519 19.7203Z" fill="url(#paint3_linear_5118_13337)"/>
<path d="M60.8694 12.8047C60.8694 13.8485 60.5489 14.6844 59.9175 15.3078C59.1915 16.0469 58.246 16.4188 57.0873 16.4188C55.98 16.4188 55.0345 16.0406 54.2588 15.2953C53.4816 14.5391 53.0938 13.611 53.0938 12.5C53.0938 11.3891 53.4816 10.461 54.2588 9.71096C55.0345 8.95939 55.98 8.58127 57.0873 8.58127C57.6386 8.58127 58.1643 8.69221 58.6659 8.89846C59.1659 9.10627 59.5729 9.38752 59.8678 9.73439L59.1979 10.3938C58.6835 9.80158 57.9832 9.50939 57.0873 9.50939C56.2796 9.50939 55.5793 9.78439 54.9848 10.3391C54.3966 10.8953 54.1018 11.6156 54.1018 12.5C54.1018 13.3844 54.3966 14.111 54.9848 14.6672C55.5793 15.2156 56.2796 15.4969 57.0873 15.4969C57.9447 15.4969 58.6659 15.2156 59.2348 14.661C59.6098 14.2938 59.8229 13.7875 59.879 13.1406H57.0873V12.2375H60.8117C60.8566 12.4328 60.8694 12.6219 60.8694 12.8047Z" fill="white" stroke="white" stroke-width="0.16" stroke-miterlimit="10"/>
<path d="M66.7778 9.67346H63.2794V12.0485H66.4333V12.9516H63.2794V15.3266H66.7778V16.2469H62.2891V8.75314H66.7778V9.67346Z" fill="white" stroke="white" stroke-width="0.16" stroke-miterlimit="10"/>
<path d="M70.9477 16.2469H69.9574V9.67346H67.8115V8.75314H73.0952V9.67346H70.9477V16.2469Z" fill="white" stroke="white" stroke-width="0.16" stroke-miterlimit="10"/>
<path d="M76.9189 16.2469V8.75314H77.9077V16.2469H76.9189Z" fill="white" stroke="white" stroke-width="0.16" stroke-miterlimit="10"/>
<path d="M82.2905 16.2469H81.3081V9.67346H79.1543V8.75314H84.4443V9.67346H82.2905V16.2469Z" fill="white" stroke="white" stroke-width="0.16" stroke-miterlimit="10"/>
<path d="M94.4479 15.2828C93.6899 16.0406 92.7507 16.4188 91.6306 16.4188C90.504 16.4188 89.5649 16.0406 88.8068 15.2828C88.0504 14.5266 87.6738 13.5985 87.6738 12.5C87.6738 11.4016 88.0504 10.4735 88.8068 9.71721C89.5649 8.95939 90.504 8.58127 91.6306 8.58127C92.7443 8.58127 93.6835 8.95939 94.4415 9.72346C95.2043 10.486 95.5809 11.4078 95.5809 12.5C95.5809 13.5985 95.2043 14.5266 94.4479 15.2828ZM89.5392 14.6547C90.1097 15.2156 90.8036 15.4969 91.6306 15.4969C92.4511 15.4969 93.1514 15.2156 93.7155 14.6547C94.2844 14.0938 94.5729 13.3735 94.5729 12.5C94.5729 11.6266 94.2844 10.9063 93.7155 10.3453C93.1514 9.78439 92.4511 9.50314 91.6306 9.50314C90.8036 9.50314 90.1097 9.78439 89.5392 10.3453C88.9703 10.9063 88.6818 11.6266 88.6818 12.5C88.6818 13.3735 88.9703 14.0938 89.5392 14.6547Z" fill="white" stroke="white" stroke-width="0.16" stroke-miterlimit="10"/>
<path d="M96.9707 16.2469V8.75314H98.1726L101.91 14.5813H101.953L101.91 13.1406V8.75314H102.899V16.2469H101.867L97.9531 10.1313H97.9098L97.9531 11.5781V16.2469H96.9707Z" fill="white" stroke="white" stroke-width="0.16" stroke-miterlimit="10"/>
<path d="M87.4305 27.1906C84.4193 27.1906 81.9594 29.425 81.9594 32.5078C81.9594 35.5656 84.4193 37.8235 87.4305 37.8235C90.4482 37.8235 92.9081 35.5656 92.9081 32.5078C92.9081 29.425 90.4482 27.1906 87.4305 27.1906ZM87.4305 35.7297C85.7783 35.7297 84.3568 34.4 84.3568 32.5078C84.3568 30.5906 85.7783 29.2844 87.4305 29.2844C89.0828 29.2844 90.5107 30.5906 90.5107 32.5078C90.5107 34.4 89.0828 35.7297 87.4305 35.7297ZM75.493 27.1906C72.4754 27.1906 70.0219 29.425 70.0219 32.5078C70.0219 35.5656 72.4754 37.8235 75.493 37.8235C78.5091 37.8235 80.9642 35.5656 80.9642 32.5078C80.9642 29.425 78.5091 27.1906 75.493 27.1906ZM75.493 35.7297C73.8392 35.7297 72.4129 34.4 72.4129 32.5078C72.4129 30.5906 73.8392 29.2844 75.493 29.2844C77.1453 29.2844 78.5667 30.5906 78.5667 32.5078C78.5667 34.4 77.1453 35.7297 75.493 35.7297ZM61.2879 28.8203V31.0797H66.8216C66.6597 32.3422 66.227 33.2703 65.5635 33.9172C64.7559 34.6985 63.4978 35.5656 61.2879 35.5656C57.8825 35.5656 55.2158 32.886 55.2158 29.5656C55.2158 26.2453 57.8825 23.5656 61.2879 23.5656C63.1293 23.5656 64.469 24.2672 65.4578 25.1766L67.0908 23.5844C65.7078 22.2969 63.868 21.3078 61.2879 21.3078C56.618 21.3078 52.6934 25.0125 52.6934 29.5656C52.6934 34.1188 56.618 37.8235 61.2879 37.8235C63.8119 37.8235 65.7078 37.0172 67.1982 35.5047C68.7254 34.0156 69.2014 31.9219 69.2014 30.2313C69.2014 29.7063 69.1565 29.2235 69.0764 28.8203H61.2879ZM119.374 30.5719C118.924 29.3828 117.535 27.1906 114.705 27.1906C111.9 27.1906 109.565 29.3453 109.565 32.5078C109.565 35.486 111.876 37.8235 114.974 37.8235C117.479 37.8235 118.924 36.3344 119.519 35.4672L117.66 34.2594C117.039 35.1438 116.195 35.7297 114.974 35.7297C113.761 35.7297 112.89 35.1875 112.333 34.1188L119.626 31.1766L119.374 30.5719ZM111.939 32.3422C111.876 30.2922 113.572 29.2422 114.786 29.2422C115.738 29.2422 116.546 29.7063 116.815 30.3703L111.939 32.3422ZM106.011 37.5H108.408V21.875H106.011V37.5ZM102.084 28.375H102.004C101.466 27.7531 100.439 27.1906 99.1373 27.1906C96.4065 27.1906 93.9097 29.5281 93.9097 32.525C93.9097 35.5047 96.4065 37.8235 99.1373 37.8235C100.439 37.8235 101.466 37.2563 102.004 36.6156H102.084V37.3781C102.084 39.411 100.971 40.5031 99.1741 40.5031C97.7094 40.5031 96.8007 39.4719 96.4257 38.6047L94.3408 39.4531C94.9417 40.8625 96.5331 42.5969 99.1741 42.5969C101.985 42.5969 104.357 40.9844 104.357 37.061V27.5141H102.084V28.375ZM99.3424 35.7297C97.6901 35.7297 96.3071 34.3813 96.3071 32.525C96.3071 30.6516 97.6901 29.2844 99.3424 29.2844C100.971 29.2844 102.254 30.6516 102.254 32.525C102.254 34.3813 100.971 35.7297 99.3424 35.7297ZM130.599 21.875H124.865V37.5H127.256V31.5797H130.599C133.254 31.5797 135.858 29.7063 135.858 26.7266C135.858 23.7485 133.248 21.875 130.599 21.875ZM130.661 29.4063H127.256V24.0485H130.661C132.447 24.0485 133.466 25.4938 133.466 26.7266C133.466 27.936 132.447 29.4063 130.661 29.4063ZM145.442 27.161C143.714 27.161 141.918 27.9047 141.179 29.5531L143.301 30.4203C143.757 29.5531 144.597 29.2719 145.485 29.2719C146.725 29.2719 147.983 29.9985 148.003 31.2813V31.4453C147.57 31.2016 146.644 30.8406 145.504 30.8406C143.219 30.8406 140.89 32.0672 140.89 34.3563C140.89 36.45 142.762 37.7985 144.866 37.7985C146.475 37.7985 147.363 37.0906 147.921 36.2672H148.003V37.475H150.312V31.4813C150.312 28.711 148.19 27.161 145.442 27.161ZM145.153 35.7235C144.371 35.7235 143.281 35.3453 143.281 34.4C143.281 33.1906 144.64 32.7266 145.817 32.7266C146.87 32.7266 147.363 32.9531 148.003 33.2516C147.815 34.6985 146.538 35.7235 145.153 35.7235ZM158.725 27.5031L155.977 34.2766H155.895L153.054 27.5031H150.475L154.745 36.9688L152.309 42.236H154.807L161.386 27.5031H158.725ZM137.172 37.5H139.57V21.875H137.172V37.5Z" fill="white"/>
<defs>
<linearGradient id="paint0_linear_5118_13337" x1="28.026" y1="39.1129" x2="7.05472" y2="17.6039" gradientUnits="userSpaceOnUse">
<stop stop-color="#00A0FF"/>
<stop offset="0.0066" stop-color="#00A1FF"/>
<stop offset="0.2601" stop-color="#00BEFF"/>
<stop offset="0.5122" stop-color="#00D2FF"/>
<stop offset="0.7604" stop-color="#00DFFF"/>
<stop offset="1" stop-color="#00E3FF"/>
</linearGradient>
<linearGradient id="paint1_linear_5118_13337" x1="43.455" y1="24.9982" x2="12.4333" y2="24.9982" gradientUnits="userSpaceOnUse">
<stop stop-color="#FFE000"/>
<stop offset="0.4087" stop-color="#FFBD00"/>
<stop offset="0.7754" stop-color="#FFA500"/>
<stop offset="1" stop-color="#FF9C00"/>
</linearGradient>
<linearGradient id="paint2_linear_5118_13337" x1="31.9073" y1="22.1299" x2="3.46858" y2="-7.03808" gradientUnits="userSpaceOnUse">
<stop stop-color="#FF3A44"/>
<stop offset="1" stop-color="#C31162"/>
</linearGradient>
<linearGradient id="paint3_linear_5118_13337" x1="9.43336" y1="49.7798" x2="22.1325" y2="36.7551" gradientUnits="userSpaceOnUse">
<stop stop-color="#32A071"/>
<stop offset="0.0685" stop-color="#2DA771"/>
<stop offset="0.4762" stop-color="#15CF74"/>
<stop offset="0.8009" stop-color="#06E775"/>
<stop offset="1" stop-color="#00F076"/>
</linearGradient>
</defs>
</svg>
