<svg width="500" height="135" viewBox="0 0 500 135" fill="none" xmlns="http://www.w3.org/2000/svg">
<path fill-rule="evenodd" clip-rule="evenodd" d="M246.367 29.1745C246.862 29.1745 250.877 28.0418 252.381 26.9091C253.884 25.7559 254.564 24.4379 254.564 22.605C254.564 21.6371 254.461 20.5662 253.905 19.763C253.797 19.6097 253.616 19.419 253.413 19.2043C252.69 18.4383 251.679 17.3682 252.628 16.6121C253.452 15.9531 253.472 14.7999 252.628 13.626C251.58 12.1357 251.795 10.0983 251.989 8.25965V8.25944V8.25924V8.25904V8.25884V8.25862V8.25841V8.2582V8.25799V8.2578V8.25759V8.25739V8.25718L251.989 8.25696L251.99 8.25369L251.99 8.2507C252.04 7.78047 252.088 7.32333 252.113 6.89177C252.257 4.93533 252.381 2.9789 252.401 1.02247C252.401 -0.130792 251.742 -0.151386 250.919 0.198713C250.703 0.285139 250.394 0.368731 250.057 0.460267L250.057 0.460284C249.108 0.71773 247.927 1.03801 247.912 1.66089C247.912 1.99727 248.073 2.6702 248.274 3.50719L248.274 3.50814L248.274 3.50845C248.565 4.72094 248.939 6.27739 249.024 7.65374C249.057 8.14332 249.146 8.64382 249.234 9.14741C249.418 10.1902 249.604 11.2463 249.312 12.2462C249.125 12.9196 248.594 13.4529 248.068 13.981C247.436 14.6157 246.811 15.243 246.8 16.0973C246.8 16.2128 246.801 16.328 246.802 16.4427C246.809 17.1667 246.816 17.8753 246.532 18.5686C246.47 18.7539 246.367 18.9187 246.264 19.0834C244.843 21.4105 244.349 24.1907 245.214 26.8885C245.266 27.0483 245.318 27.2157 245.37 27.3844L245.37 27.3848L245.37 27.3852L245.37 27.3856L245.37 27.3861L245.371 27.387C245.647 28.2836 245.934 29.2157 246.367 29.2157V29.1745ZM255.921 101.13C254.757 101.731 253.902 103.781 253.13 105.631C252.66 106.758 252.221 107.812 251.761 108.42C249.846 110.974 247.251 112.209 244.039 110.665C242.947 110.129 243.585 113.383 244.656 115.072C245.254 116.019 245.624 116.513 246.654 117.049C246.881 117.152 247.581 117.667 248.013 118.099C248.425 118.532 248.919 119.891 248.878 120.55C248.24 129.261 248.961 133.153 248.961 133.153C248.94 136.139 252.173 134.76 251.905 131.032C251.773 129.314 251.628 128.116 251.504 127.089L251.504 127.088L251.504 127.088L251.504 127.087L251.504 127.086L251.503 127.086L251.503 127.085L251.503 127.084L251.503 127.084C251.356 125.873 251.239 124.901 251.205 123.598C251.185 121.971 251.391 119.17 251.576 118.429C251.725 117.776 252.144 117.36 252.849 116.66C252.923 116.587 252.999 116.511 253.079 116.431C256.078 113.492 256.695 110.08 257.376 106.323C257.405 106.157 257.435 105.992 257.466 105.825C257.775 104.054 257.919 102.015 257.466 101.48C257.033 100.944 256.416 100.903 255.921 101.15V101.13ZM259.444 81.709C264.386 81.8943 267.228 83.0682 267.929 83.6242H267.949C269.988 85.21 268.979 86.4044 267.146 85.9514C267.146 85.9514 263.542 85.5601 258.785 86.425C257.945 86.5741 257.157 86.7225 256.421 86.8612L256.42 86.8613C252.986 87.5083 250.673 87.944 249.435 87.2488C247.012 85.8937 245.347 83.2901 243.888 81.0091L243.875 80.9882C243.679 80.6762 243.481 80.3651 243.282 80.0539C242.565 78.9276 241.847 77.8002 241.218 76.6223C240.621 75.5102 240.415 74.1922 241.053 73.4302C241.754 72.6064 242.824 73.1831 243.895 74.1716C245.007 75.1807 246.593 76.4987 249.106 78.3933C252.483 80.9264 255.181 81.5442 259.444 81.709ZM233.31 70.7747C232.878 72.3193 232.177 72.4222 231.436 72.1339C230.427 71.8044 228.841 70.1569 228.841 69.1272C228.841 66.8825 231.292 67.5003 232.569 68.3446C233.351 68.8801 233.66 69.5391 233.31 70.7747ZM264.263 74.9759C260.927 74.1933 256.519 72.1339 254.336 70.7953C252.153 69.4567 249.064 67.8916 246.222 66.553C243.36 65.2143 237.697 62.8872 237.697 62.8872C230.365 60.0041 220.521 58.13 221.304 66.1411C221.674 70.0127 223.919 73.6167 226.72 76.191C228.738 78.0444 232.239 81.0717 235.246 80.7834C239.038 80.421 239.105 77.7731 239.168 75.283C239.205 73.8108 239.241 72.3937 240.044 71.5367C240.6 70.9601 241.156 70.6512 242.268 70.9601C243.072 71.2072 245.296 72.484 246.82 73.3902C248.364 74.2757 251.783 76.1498 254.048 77.0971C256.911 78.3121 261.668 79.5272 265.416 79.0535C268.69 78.6416 269.988 78.065 270.565 76.8912C270.99 75.9825 268.849 75.6892 266.703 75.3952C265.834 75.2761 264.964 75.1568 264.263 74.9965V74.9759ZM237.079 91.7796C237.965 92.6651 239.221 92.6445 239.88 91.7384C240.539 90.8323 240.292 89.5349 239.818 88.7729C239.345 88.0109 238.48 87.8873 237.78 88.0109C237.079 88.1139 236.544 88.5463 236.317 89.3907C236.05 90.338 236.565 91.2647 237.079 91.7796ZM255.285 89.2465C258.971 87.9903 262.451 87.9079 266.302 88.3198L266.282 88.3404C267.826 88.5051 268.526 89.5349 265.911 90.338C265.171 90.564 264.419 90.7701 263.663 90.9773C260.147 91.9409 256.534 92.9313 253.534 96.0837C250.774 98.9669 250.012 100.573 248.262 104.527C247.109 107.205 246.326 107.699 244.473 107.102C243.031 106.648 241.239 105.866 239.633 105.042C237.553 103.992 236.338 103.045 238.892 101.109C238.959 101.057 239.119 100.941 239.34 100.779C240.537 99.9058 243.53 97.721 243.443 97.4429C243.437 97.4372 243.428 97.4298 243.418 97.4212C243.391 97.3992 243.355 97.3696 243.34 97.34C243.34 97.34 242.887 96.9281 242.31 96.4544C241.466 97.1546 240.436 97.5665 239.077 97.7519C235.452 98.2255 232.487 96.3926 231.148 93.0152C230.297 90.865 230.386 89.3619 230.445 88.3715C230.47 87.9485 230.489 87.619 230.428 87.3725C230.35 87.0352 229.968 86.681 229.444 86.1948C228.432 85.256 226.888 83.8247 225.979 81.0707C225.217 78.7848 226.968 80.1234 226.968 80.1234C227.35 80.5652 227.644 80.9344 227.898 81.2544C228.522 82.0381 228.912 82.5273 229.789 83.0683C231.457 84.1392 232.446 84.201 235.02 83.2331C237.388 82.3475 239.098 82.3887 241.136 83.3978C242.908 84.2628 244.246 85.3131 245.111 88.2374C245.399 89.1642 245.338 91.1412 244.885 92.5004C244.802 92.7887 245.214 92.9329 245.214 92.9329C245.442 93.2312 245.82 93.4997 246.245 93.802L246.348 93.8752L246.433 93.9359L246.47 93.9626C247.276 94.5435 248.082 93.8625 249.757 92.4473L249.759 92.4457C249.924 92.3061 250.097 92.1594 250.28 92.0061C251.948 90.5851 253.575 89.8232 255.285 89.2465ZM233.864 37.9889C235.471 39.0392 237.509 39.7394 237.839 39.7188C238.251 39.6982 239.013 39.2863 239.981 38.7508L240.228 38.6273C240.887 38.2566 241.731 37.7211 242.39 37.2269C242.596 37.0827 242.699 36.8768 242.678 36.6502C242.678 35.9706 241.154 34.7762 240.722 34.4673L238.58 33.0669H238.518L238.485 33.0667C238.293 33.0653 237.712 33.0609 237.365 33.2728L236.768 33.6229C236.507 33.7671 236.249 33.9135 235.99 34.06C235.473 34.3529 234.956 34.6458 234.42 34.9204C234.306 34.975 234.139 35.0344 233.95 35.1017C233.354 35.3138 232.537 35.6048 232.443 36.0736C232.32 36.712 233.308 37.68 233.844 38.03L233.864 37.9889ZM229.375 44.2089C229.025 44.2501 226.904 43.4675 225.235 42.3143V42.3349C224.7 41.9436 223.67 40.8933 223.814 40.2343C223.909 39.7483 224.778 39.4652 225.415 39.2578C225.615 39.1927 225.792 39.1351 225.915 39.081C226.759 38.6691 227.583 38.216 228.407 37.763L229.045 37.4129C229.415 37.2097 229.983 37.2219 230.2 37.2266L230.227 37.2271L230.245 37.2274L230.26 37.2275H230.343L232.546 38.7721C232.627 38.8296 232.776 38.9234 232.967 39.0428C233.799 39.5648 235.409 40.5743 235.409 41.161C235.409 41.4081 235.285 41.6141 235.079 41.7582C234.656 42.0488 233.869 42.3393 233.15 42.6048C232.646 42.7909 232.176 42.9647 231.887 43.1174L231.64 43.241C230.611 43.797 229.787 44.2089 229.375 44.2089ZM240.454 41.0995C240.44 41.0995 240.421 41.0991 240.398 41.0986C240.181 41.0942 239.589 41.0822 239.198 41.3054L238.518 41.6761L238.518 41.6765C237.653 42.15 236.788 42.6236 235.903 43.0559C235.769 43.1175 235.575 43.183 235.355 43.2567L235.355 43.2567C234.693 43.4788 233.808 43.7763 233.699 44.271C233.535 44.9712 234.626 46.0627 235.203 46.4745C236.953 47.669 239.177 48.4722 239.548 48.4722C239.981 48.4516 240.845 48.0191 241.916 47.4425L242.184 47.3189C242.478 47.1591 242.965 46.9788 243.488 46.7848C244.246 46.5037 245.082 46.1941 245.52 45.8773C245.726 45.7126 245.87 45.486 245.87 45.2595C245.87 44.6675 244.329 43.6902 243.429 43.1194L243.429 43.1192L243.428 43.1189L243.427 43.1182L243.427 43.118L243.426 43.1175C243.169 42.9545 242.964 42.8248 242.864 42.747L240.557 41.1407H240.454V41.0995ZM256.911 30.3691C265.108 28.4127 273.16 28.4127 279.523 34.1378H279.503C281.665 36.0737 283.025 40.1513 280.183 42.602C277.794 44.6614 274.931 45.0733 274.931 45.0733C274.931 45.0733 278.267 47.0503 278.597 49.5422C278.906 51.9105 277.608 54.1552 274.107 55.2261L273.778 55.3291L274.107 55.7616C276.517 59.9421 275.549 71.9896 268.073 70.6098C262.104 69.5194 258.855 68.34 253.586 66.428L253.586 66.428L253.581 66.4262L253.569 66.4219L253.565 66.4205C253.169 66.2766 252.761 66.1286 252.339 65.9762C242.248 62.2899 232.322 58.0475 228.595 56.4412L228.335 56.3279C223.954 54.4184 216.646 51.2332 216.423 49.295C216.342 48.5874 216.255 47.9213 216.173 47.2974V47.2973C215.796 44.4355 215.536 42.4632 216.568 41.4487C217.654 40.3806 219.577 41.5461 223.622 43.9988L223.625 44.0006C224.025 44.2429 224.445 44.4978 224.888 44.7644C228.038 46.6384 231.169 48.4507 234.443 50.057C237.1 51.3544 239.756 52.6313 242.454 53.8669C247.232 56.0293 252.092 58.0475 257.097 59.695C257.322 59.77 257.688 59.9087 258.153 60.0848C260.882 61.118 267.008 63.4375 267.888 61.7132C268.773 60.0451 268.959 58.3358 267.785 56.7501L267.476 56.297L266.796 56.3382C260.021 56.6883 251.557 53.2079 246.861 48.4507C246.47 47.8741 247.891 47.421 249.003 47.1945C249.775 47.0401 250.317 46.8761 251.236 46.5983L251.237 46.5982C251.666 46.4684 252.178 46.3137 252.834 46.1236C252.94 46.0912 253.065 46.05 253.204 46.0043C254.036 45.7306 255.355 45.2969 255.902 45.6499C259.177 47.8329 265.767 51.8281 270.236 50.0776C271.574 49.5628 271.512 47.2562 270.256 46.1442C269.089 45.1154 267.523 45.0179 265.959 44.9205L265.767 44.9085C263.254 44.7644 260.618 44.2907 259.589 42.8697C259.177 42.3137 260.083 41.4075 261.257 41.0986C263.065 40.6141 265.077 40.7502 267.013 40.8811C267.545 40.9172 268.072 40.9528 268.588 40.9751C271.162 41.0986 272.583 40.419 273.531 39.3275C274.19 38.545 273.963 36.7945 271.76 36.0119C266.59 34.179 260.762 36.259 256.129 38.6685C255.872 38.8032 255.635 38.9444 255.407 39.08C254.486 39.6286 253.718 40.0864 252.381 39.657C250.702 39.1092 248.537 38.0002 246.929 37.176L246.929 37.1758L246.929 37.1757C246.663 37.0396 246.412 36.9112 246.182 36.7945C243.814 35.5794 242.99 35.0028 243.958 34.6115C248.179 32.8816 252.463 31.4194 256.911 30.3691ZM304.587 87.6813C303.681 89.5348 303.351 89.9878 302.507 90.7086C300.756 92.3356 299.068 92.9534 295.875 92.9534C292.777 92.9534 292.298 92.837 291.03 92.5289L290.912 92.5003C289.8 92.212 288.832 91.9443 288.832 90.4821C288.832 90.2958 288.846 89.7407 288.861 89.159L288.861 89.1545L288.861 89.1499L288.861 89.1452L288.861 89.1404C288.877 88.5061 288.894 87.8447 288.894 87.5989C288.894 87.1047 288.894 86.5898 288.832 86.0956C288.832 85.9848 288.818 85.8789 288.802 85.7707C288.787 85.6577 288.771 85.5422 288.771 85.416C288.771 84.5098 289.512 83.8508 290.233 83.8508C290.356 83.8508 290.459 83.8508 290.583 83.9126C290.844 83.9538 291.105 84.0682 291.365 84.1826L291.366 84.1829C291.496 84.24 291.626 84.2971 291.757 84.3451C292.086 84.4687 293.878 84.6334 294.125 84.6334C294.908 84.6334 296.308 84.2215 296.308 82.9447C296.308 81.7714 295.493 81.0552 294.976 80.6008L294.949 80.5764C294.646 80.2877 294.353 80.0357 294.038 79.7653C293.882 79.6306 293.719 79.4914 293.548 79.3407C292.869 78.7229 291.571 77.4255 290.789 75.9016C289.388 73.0802 289.224 71.7416 289.224 70.2794C289.224 68.2612 289.738 66.5107 290.068 65.8311C290.109 65.7075 290.85 64.4307 291.139 64.0188C292.828 61.5475 295.875 60.8679 298.285 60.8679H298.8C299.206 60.8939 299.609 60.9307 300.014 60.9677C300.574 61.0189 301.139 61.0706 301.724 61.0945L301.804 61.1011C303.006 61.2007 304.036 61.286 304.257 62.4949C304.332 62.7805 304.298 63.8125 304.274 64.5332C304.265 64.7997 304.257 65.0236 304.257 65.1515C304.257 65.3555 304.285 65.9124 304.312 66.4453L304.312 66.4464C304.337 66.9351 304.36 67.4034 304.36 67.561C304.36 68.8584 303.166 69.2497 302.671 69.2497C302.46 69.2497 302.292 69.183 301.876 69.0171C301.725 68.9571 301.542 68.8841 301.312 68.7966C300.88 68.6319 300.365 68.5083 299.912 68.5083C298.882 68.5083 297.997 68.9614 297.997 69.9705C297.997 70.9025 299.033 71.9541 300.4 73.3411L300.468 73.4097C302.218 75.0984 303.227 76.1075 304.134 78.0227C304.813 79.4231 305.307 80.6176 305.307 83.1918C305.307 85.0453 305.019 86.631 304.587 87.6401V87.6813ZM306.969 63.1452L306.968 63.1547C306.93 64.4671 306.893 65.7261 306.892 66.1802C306.893 66.5186 306.926 67.3602 306.958 68.1565V68.1576L306.958 68.1598L306.958 68.162C306.988 68.8874 307.015 69.5741 307.015 69.8072C307.015 70.1551 306.993 71.1344 306.972 72.0904C306.952 73.0019 306.933 73.8922 306.933 74.1937C306.933 75.1513 306.922 76.4024 306.912 77.6535C306.902 78.9046 306.891 80.1557 306.891 81.1133C306.891 81.5656 306.902 82.7969 306.913 84.0004L306.913 84.0107C306.923 85.16 306.933 86.2819 306.933 86.6737C306.933 87.0201 306.922 87.9336 306.911 88.8279L306.911 88.8396C306.901 89.6958 306.891 90.5321 306.891 90.8337C306.933 92.4606 307.674 92.5842 308.745 92.5842C308.964 92.5842 309.589 92.542 310.206 92.5003C310.809 92.4596 311.404 92.4194 311.607 92.4194C311.842 92.4194 312.485 92.447 313.105 92.4736L313.106 92.4736L313.107 92.4737L313.107 92.4737C313.684 92.4985 314.24 92.5224 314.429 92.5224C315.603 92.5224 315.665 91.6368 315.665 91.3485C315.665 91.2421 315.624 90.9265 315.58 90.5918C315.531 90.2143 315.479 89.8126 315.479 89.6598C315.472 89.5359 315.464 89.408 315.455 89.2771L315.455 89.2763L315.455 89.2749C315.417 88.6885 315.376 88.0449 315.376 87.4563C315.376 87.1398 315.403 86.2614 315.43 85.4051L315.43 85.4003V85.3997C315.455 84.5861 315.479 83.7934 315.479 83.5228C315.479 81.9371 315.479 79.6305 315.438 78.0654C315.438 77.7792 315.422 76.9528 315.406 76.1508V76.1501V76.1481L315.406 76.1422V76.1404L315.406 76.1351C315.391 75.3845 315.376 74.6584 315.376 74.4202C315.376 73.4111 315.376 72.8963 315.438 71.2694C315.479 70.1985 315.541 68.8599 317.291 68.8599C317.848 68.8599 318.692 68.8599 318.692 71.0016C318.692 71.084 318.661 71.5731 318.63 72.0622C318.599 72.5513 318.568 73.0404 318.568 73.1228C318.465 74.7085 318.465 77.1181 318.465 78.7038C318.465 79.1323 318.492 80.3563 318.518 81.5604L318.518 81.5636V81.5647L318.518 81.5689V81.5704L318.518 81.5748L318.518 81.5801V81.5821L318.518 81.5879L318.519 81.5912C318.544 82.7491 318.568 83.8821 318.568 84.2642C318.568 84.4652 318.552 85.009 318.536 85.5376C318.521 86.0376 318.507 86.5241 318.507 86.6943C318.507 86.8771 318.522 87.4257 318.537 87.9817C318.552 88.5529 318.568 89.132 318.568 89.3303L318.559 89.5855C318.463 92.2102 318.453 92.4812 320.03 92.4812C320.232 92.4812 320.775 92.4486 321.304 92.4168L321.304 92.4168C321.804 92.3868 322.29 92.3576 322.461 92.3576C322.726 92.3576 323.42 92.3905 324.091 92.4224C324.72 92.4522 325.33 92.4812 325.55 92.4812C325.962 92.4812 327.197 92.4812 327.197 90.8543C327.197 90.6502 327.18 90.0934 327.164 89.5604L327.164 89.5522C327.149 89.0661 327.135 88.6016 327.135 88.4448C327.135 88.1791 327.152 87.4803 327.168 86.8039V86.8023L327.168 86.7982C327.183 86.1656 327.197 85.5537 327.197 85.3351C327.197 85.018 327.165 84.1369 327.133 83.2791L327.133 83.2771C327.103 82.4639 327.074 81.6721 327.074 81.4016C327.074 80.0014 327.089 78.174 327.105 76.3517L327.105 76.3455V76.3407V76.337V76.3343V76.3323V76.3307L327.105 76.3185V76.3168V76.3147V76.312V76.3083V76.3036L327.105 76.2973C327.12 74.4928 327.135 72.6974 327.135 71.3311C327.135 71.0141 327.163 70.1764 327.189 69.3608C327.214 68.587 327.238 67.8331 327.238 67.5624C327.238 65.1529 326.847 63.7937 325.838 62.6199C324.314 60.89 321.451 60.6017 320.504 60.6017C318.465 60.6017 316.735 61.6108 316.447 61.8991C316.145 62.2011 315.919 62.3521 315.767 62.3521C315.376 62.3521 315.314 62.0226 315.314 61.343C315.314 61.1085 315.331 60.5153 315.347 59.9433V59.9417V59.9411L315.347 59.9303C315.362 59.402 315.376 58.8942 315.376 58.707C315.376 58.5114 315.361 57.9502 315.345 57.389C315.33 56.8278 315.314 56.2666 315.314 56.071C315.314 55.8874 315.348 55.37 315.381 54.8776C315.41 54.4307 315.438 54.0046 315.438 53.8674C315.438 53.126 315.047 52.4052 314.038 52.4052C313.741 52.4052 312.9 52.4651 312.083 52.5233C311.311 52.5783 310.56 52.6318 310.31 52.6318C310.14 52.6318 309.684 52.6043 309.243 52.5777C308.83 52.5529 308.431 52.5288 308.292 52.5288C306.933 52.5288 306.933 53.888 306.933 54.2793C306.933 54.5318 306.965 55.2573 306.996 55.967V55.9675L306.997 55.9688C307.027 56.6477 307.056 57.3117 307.056 57.5331V59.6131C307.056 60.1669 307.012 61.6675 306.97 63.1132L306.969 63.1182L306.969 63.1226L306.969 63.1267L306.969 63.1308V63.1322L306.969 63.1379L306.969 63.1452ZM348.231 85.9911V85.9928L348.231 86.0021C348.247 86.6638 348.264 87.3533 348.264 87.6207C348.264 87.8092 348.24 88.3656 348.215 88.9424L348.215 88.9468L348.215 88.9492L348.215 88.9507C348.189 89.5688 348.161 90.2083 348.161 90.4421V91.2864C348.161 92.3573 347.379 92.5839 346.699 92.5839C346.511 92.5839 345.956 92.5696 345.38 92.5547L345.377 92.5547C344.757 92.5387 344.112 92.5221 343.878 92.5221C343.363 92.4603 342.807 92.5221 342.292 92.5839C342.148 92.5839 342.009 92.5993 341.87 92.6148C341.731 92.6302 341.592 92.6456 341.448 92.6456C340.665 92.6456 340.665 92.3161 340.665 91.7395C340.665 91.3482 340.5 91.1217 340.315 91.1217C340.181 91.1217 339.802 91.4642 339.538 91.7016L339.538 91.7018L339.537 91.7028C339.461 91.7709 339.395 91.8303 339.348 91.8704L339.327 91.8875C339.319 91.8939 339.312 91.8995 339.306 91.9043C338.688 92.3985 337.679 92.8722 336.093 92.8722C334.116 92.8722 333.004 92.3573 332.16 91.8013C329.009 89.8449 328.556 84.4904 328.556 81.8956C328.556 77.8385 329.276 74.976 330.594 73.2873C332.386 70.8778 335.043 70.5483 336.093 70.5483C337.329 70.5483 337.782 70.713 339.182 71.372C339.306 71.4338 339.47 71.4956 339.635 71.4956C339.924 71.4956 340.438 71.2073 340.438 70.5895C340.438 70.0952 340.274 69.2508 339.985 68.839C339.697 68.4065 339.141 67.8916 336.773 67.8916C335.311 67.8916 334.013 68.2417 333.169 68.6742C332.551 69.0655 332.448 69.0655 332.221 69.0655C331.707 69.0655 330.821 68.5506 330.697 68.0564C330.636 67.8916 330.594 67.212 330.594 66.9855C330.594 66.8975 330.608 66.6376 330.623 66.3646C330.639 66.0629 330.656 65.7452 330.656 65.6263C330.656 65.3121 330.64 65.0138 330.625 64.7207V64.72C330.609 64.437 330.594 64.1589 330.594 63.8758C330.594 62.9697 330.759 62.4136 332.386 61.9194C334.631 61.178 335.578 61.178 336.773 61.178C336.935 61.178 337.412 61.163 337.896 61.1478C338.395 61.1321 338.901 61.1162 339.079 61.1162C340.48 61.1162 344.207 61.5075 346.122 62.8667C347.646 63.9376 348.264 65.1732 348.264 69.3332C348.264 69.5215 348.25 70.0624 348.235 70.6236L348.235 70.6257V70.6264L348.235 70.6288C348.219 71.2325 348.202 71.8584 348.202 72.0928C348.202 72.3494 348.218 73.0921 348.233 73.8337L348.233 73.8394L348.233 73.8457L348.234 73.8521V73.8543L348.234 73.8635V73.8643L348.234 73.8666L348.235 73.9108C348.25 74.6308 348.264 75.3338 348.264 75.5732C348.264 76.3867 348.249 77.2001 348.233 78.0136L348.233 78.0184C348.218 78.8303 348.202 79.6421 348.202 80.454V84.5728V84.5934C348.202 84.7995 348.216 85.3799 348.231 85.9867L348.231 85.9911ZM336.773 78.5182C336.381 79.3007 336.381 79.8156 336.381 81.4013V82.4516C336.381 84.7581 336.999 85.829 338.235 85.829C339.635 85.829 339.985 84.1403 339.985 83.9756C340.047 83.749 340.047 80.2686 340.047 79.7126C340.047 78.2504 339.017 77.4678 338.235 77.4678C337.885 77.4678 337.226 77.6944 336.773 78.5387V78.5182ZM361.59 71.8865C361.714 72.319 361.755 72.7721 361.755 73.2251L361.693 73.3075V73.4105C361.666 74.2354 361.427 75.0328 361.186 75.8394L361.185 75.8401L361.185 75.8408L361.185 75.8417C361.065 76.2426 360.944 76.6457 360.849 77.0556C360.798 77.28 360.686 77.9033 360.574 78.5304L360.573 78.5347L360.572 78.5397L360.572 78.5436L360.571 78.5487C360.457 79.1819 360.344 79.8152 360.293 80.0418L359.778 82.2865C359.733 82.0088 359.688 81.7371 359.642 81.4686L359.641 81.4645C359.519 80.7387 359.4 80.036 359.325 79.3004C359.212 78.425 359.098 77.5547 358.985 76.6845C358.872 75.8145 358.758 74.9446 358.645 74.0695C358.192 71.104 357.471 64.1226 357.41 62.8252L357.406 62.7866C357.346 62.0534 357.275 61.1982 355.494 61.1982C355.299 61.1982 354.779 61.2137 354.259 61.2291L354.259 61.2291C353.739 61.2446 353.219 61.26 353.023 61.26H350.84C349.893 61.3012 349.151 61.363 349.151 62.4339C349.151 62.5986 349.646 66.079 349.769 66.7586C349.86 67.4526 349.931 68.15 350.002 68.8493L350.002 68.8503L350.002 68.8512L350.002 68.8521L350.003 68.853L350.003 68.8539L350.003 68.8548L350.003 68.8557L350.003 68.8567L350.003 68.8576L350.003 68.8585L350.003 68.8594L350.003 68.8603L350.003 68.8612L350.003 68.8622L350.004 68.8631L350.004 68.8641L350.004 68.8648L350.004 68.8655L350.004 68.8661L350.004 68.8667L350.004 68.8672V68.8676C350.109 69.9054 350.215 70.9475 350.387 71.9895C350.453 72.3503 350.525 72.7112 350.597 73.0748L350.597 73.0764L350.598 73.0779L350.598 73.0794L350.598 73.081C350.727 73.7323 350.858 74.3928 350.964 75.0786C351.246 76.6512 351.442 78.256 351.638 79.8542L351.638 79.8556L351.638 79.8569L351.638 79.8578L351.638 79.8587L351.638 79.8596L351.638 79.8605L351.638 79.8615L351.638 79.862C351.714 80.4797 351.789 81.0964 351.87 81.7099L352.549 85.6021C352.673 86.6099 352.821 87.606 352.965 88.5816C353.013 88.9019 353.06 89.22 353.105 89.5356L353.113 89.5806C353.498 91.8523 353.629 92.6247 355.021 92.6247C355.247 92.6247 355.896 92.5835 356.545 92.5423L356.545 92.5423C357.194 92.5011 357.842 92.46 358.069 92.46C358.16 92.46 358.483 92.47 358.868 92.482L358.868 92.482L358.869 92.4821C359.438 92.4998 360.142 92.5217 360.437 92.5217C360.663 92.5629 360.89 92.5629 361.117 92.5629C362.46 92.5629 362.723 91.6341 362.997 90.6675L363.032 90.5447C363.114 90.2057 363.201 89.8564 363.289 89.507L363.289 89.5055L363.289 89.5047C363.377 89.1546 363.464 88.8045 363.547 88.4647C363.619 88.1336 363.702 87.7974 363.787 87.4507L363.788 87.4487C363.872 87.1059 363.959 86.7529 364.041 86.3847C364.206 85.6021 364.432 84.7578 364.659 83.9752L364.68 84.0483L364.681 84.0486L364.681 84.0488L364.681 84.0491L364.681 84.0493L364.681 84.0496L364.681 84.0499L364.681 84.0501L364.681 84.0504L364.681 84.0506L364.681 84.0509L364.681 84.0511L364.682 84.0514L364.682 84.0516L364.682 84.0519L364.682 84.0521L364.682 84.0524C364.829 84.55 364.893 84.7658 365.05 86.1582C365.235 87.5174 365.503 89.3091 365.791 90.6683C366.08 92.151 366.244 92.5835 367.48 92.5835C367.611 92.5835 368.03 92.5538 368.457 92.5234C368.9 92.492 369.351 92.46 369.498 92.46C369.873 92.46 370.902 92.5044 371.892 92.5471C372.808 92.5866 373.691 92.6247 373.988 92.6247C375.079 92.6247 375.285 92.3982 375.512 91.2861L375.545 91.1376L375.595 90.9152L375.6 90.8949L375.6 90.8931C375.693 90.4815 375.783 90.0822 375.862 89.6592C376.047 88.7867 376.181 87.8887 376.313 87.0034L376.314 86.9999L376.314 86.9967C376.388 86.5051 376.461 86.0175 376.541 85.5404C376.651 84.8264 376.816 84.1125 376.981 83.3986C377.063 83.0416 377.146 82.6847 377.221 82.3277C377.303 81.7931 377.385 81.2739 377.468 80.7547L377.468 80.7516L377.468 80.7509C377.551 80.2313 377.633 79.7118 377.715 79.1768C377.826 78.5274 377.952 77.8779 378.078 77.2284C378.28 76.1892 378.482 75.1499 378.621 74.1107C378.825 72.909 379.001 71.6961 379.178 70.4749L379.179 70.4724L379.179 70.4718L379.179 70.4712L379.179 70.4705L379.179 70.4699L379.179 70.4693L379.179 70.4687L379.179 70.4681L379.179 70.4675C379.342 69.3472 379.505 68.22 379.692 67.0881C379.919 66.079 380.145 65.0699 380.372 63.999C380.391 63.8739 380.413 63.7506 380.436 63.6287C380.487 63.3494 380.537 63.077 380.537 62.8046C380.537 61.5072 379.569 61.466 379.013 61.466C378.86 61.466 378.441 61.4775 378.047 61.4884C377.698 61.4981 377.369 61.5072 377.262 61.5072C376.976 61.5072 376.221 61.4744 375.487 61.4426L375.487 61.4426C374.796 61.4127 374.125 61.3836 373.885 61.3836C372.196 61.3836 371.743 61.3836 371.681 63.6901C371.619 65.0493 370.569 75.161 370.384 76.9115C370.285 77.3845 370.224 77.933 370.165 78.4667L370.157 78.5384C370.105 78.9368 370.079 79.3513 370.053 79.7736L370.053 79.775C370.028 80.1817 370.002 80.5957 369.951 81.0097C369.89 81.5245 369.828 82.0188 369.725 82.5336C369.457 80.4536 369.045 76.7879 368.88 74.6667C368.851 74.078 368.826 73.5033 368.802 72.9336L368.802 72.9305C368.775 72.3057 368.748 71.6871 368.716 71.0628C368.693 70.5114 368.634 69.9538 368.574 69.3968C368.525 68.9345 368.476 68.4725 368.448 68.0149C368.448 67.7059 368.433 67.3816 368.417 67.0572C368.402 66.7329 368.386 66.4085 368.386 66.0996C368.386 65.0905 368.386 64.0196 368.324 63.0105C368.283 62.1868 368.221 61.2806 366.306 61.2806C366.082 61.2806 365.535 61.2928 365.036 61.3039L365.035 61.304C364.617 61.3133 364.234 61.3218 364.103 61.3218H361.858C361.59 61.2806 361.364 61.2806 361.075 61.2806C360.622 61.2806 360.066 61.3218 360.066 62.2279C360.066 62.3817 360.107 62.5626 360.149 62.7512L360.15 62.7515C360.181 62.8912 360.213 63.0351 360.231 63.1753C360.457 64.0608 360.972 68.1384 361.075 68.9622C361.132 69.2857 361.195 69.6091 361.259 69.9359L361.259 69.9366C361.383 70.5665 361.509 71.2087 361.59 71.8865ZM399.79 84.5934C399.79 84.8002 399.8 85.3838 399.81 85.9928C399.82 86.6573 399.831 87.352 399.831 87.6207C399.831 87.8087 399.808 88.3628 399.783 88.938L399.783 88.9423L399.783 88.9468L399.783 88.9491L399.782 88.9507C399.756 89.5688 399.728 90.2083 399.728 90.442V91.2864C399.728 92.3573 398.946 92.5838 398.266 92.5838C398.076 92.5838 397.508 92.5691 396.926 92.5541H396.926C396.315 92.5383 395.687 92.522 395.466 92.522C394.951 92.4603 394.395 92.522 393.88 92.5838C393.736 92.5838 393.597 92.5993 393.458 92.6147C393.319 92.6302 393.18 92.6456 393.035 92.6456C392.253 92.6456 392.253 92.3161 392.253 91.7395C392.253 91.3482 392.088 91.1217 391.923 91.1217C391.805 91.1217 391.421 91.462 391.153 91.6994L391.152 91.6997C391.095 91.7503 391.043 91.7962 391.001 91.8331C390.965 91.8639 390.935 91.8884 390.914 91.9042C390.296 92.3985 389.287 92.8721 387.702 92.8721C385.745 92.8721 384.612 92.3573 383.768 91.8013C380.617 89.8448 380.164 84.4904 380.164 81.8955C380.164 77.8385 380.885 74.976 382.182 73.2872C383.974 70.8777 386.631 70.5482 387.702 70.5482C388.937 70.5482 389.39 70.713 390.791 71.372C390.914 71.4338 391.079 71.4956 391.244 71.4956C391.532 71.4956 392.026 71.2072 392.026 70.5894C392.026 70.0952 391.862 69.2508 391.573 68.8389C391.285 68.4065 390.729 67.8916 388.361 67.8916C386.898 67.8916 385.601 68.2417 384.757 68.6742C384.139 69.0655 384.015 69.0655 383.789 69.0655C383.294 69.0655 382.388 68.5506 382.265 68.0564C382.203 67.8916 382.141 67.212 382.141 66.9855C382.141 66.8974 382.155 66.6375 382.17 66.3646C382.186 66.0629 382.203 65.7452 382.203 65.6263C382.203 65.312 382.187 65.0138 382.171 64.7207V64.72V64.7192V64.7186V64.7181V64.7175V64.7169V64.7165V64.716V64.7155V64.7151V64.7147V64.7143V64.714V64.7137C382.156 64.4329 382.141 64.1568 382.141 63.8758C382.141 62.9696 382.306 62.4136 383.933 61.9193C386.178 61.178 387.146 61.178 388.319 61.178C388.494 61.178 388.984 61.1625 389.473 61.1471C389.962 61.1316 390.451 61.1162 390.626 61.1162C392.026 61.1162 395.754 61.5075 397.669 62.8667C399.193 63.9376 399.811 65.1732 399.811 69.3332C399.811 69.5217 399.801 70.0637 399.791 70.6256L399.791 70.6354V70.6376L399.791 70.6439L399.791 70.6487V70.649V70.6501L399.791 70.6531C399.78 71.2492 399.77 71.8615 399.77 72.0928C399.77 72.3528 399.78 73.112 399.791 73.8635L399.791 73.8709V73.8724L399.791 73.8769C399.801 74.6086 399.811 75.33 399.811 75.5732C399.811 76.3842 399.801 77.1953 399.79 78.0064L399.79 78.0136L399.79 78.0208C399.78 78.8318 399.77 79.6429 399.77 80.454V84.5728L399.79 84.5934ZM388.361 78.5181C387.969 79.3007 387.969 79.8155 387.969 81.4013V82.4516C387.969 84.7581 388.587 85.829 389.823 85.829C391.223 85.829 391.573 84.1403 391.573 83.9755C391.614 83.749 391.614 80.2686 391.614 79.7126C391.614 78.2504 390.605 77.4678 389.823 77.4678C389.493 77.4678 388.814 77.6944 388.361 78.5387V78.5181ZM405.62 61.26H403.437V61.3012C401.748 61.3012 401.748 62.3721 401.748 62.9281C401.748 63.4696 401.78 64.9589 401.811 66.4295L401.811 66.4335L401.811 66.439L401.811 66.445C401.842 67.8774 401.872 69.2889 401.872 69.7859V79.1768C401.872 79.5555 401.839 80.547 401.808 81.517C401.778 82.4456 401.748 83.3545 401.748 83.6869C401.748 83.9906 401.78 84.8695 401.811 85.7332L401.811 85.7352C401.842 86.5691 401.872 87.3885 401.872 87.6615V91.1007C401.872 91.9863 402.098 92.6041 403.622 92.6041C403.875 92.6041 404.6 92.5611 405.31 92.519L405.311 92.519C405.99 92.4787 406.654 92.4393 406.876 92.4393C407.053 92.4393 407.533 92.4711 408.005 92.5024L408.005 92.5024L408.006 92.5025L408.007 92.5025C408.465 92.5329 408.917 92.5629 409.079 92.5629C409.862 92.5629 410.645 92.2952 410.645 90.5447C410.645 90.2564 410.48 88.9177 410.418 88.6294C410.418 88.4856 410.403 88.3315 410.387 88.1773L410.387 88.1764C410.372 88.0219 410.356 87.8674 410.356 87.7233C410.356 87.4885 410.373 86.8332 410.389 86.2019L410.389 86.1995C410.404 85.6136 410.418 85.0489 410.418 84.8607C410.356 83.7075 410.356 83.5633 410.356 83.275C410.356 82.9537 410.373 82.1312 410.389 81.3432L410.389 81.3396L410.389 81.3307C410.404 80.608 410.418 79.9167 410.418 79.671V76.8085C410.418 72.5249 412.457 71.9689 412.848 71.9689C412.897 71.9689 413.064 72.0064 413.238 72.0456L413.238 72.0457C413.429 72.0887 413.628 72.1336 413.693 72.1336C414.64 72.1336 414.64 71.2275 414.64 70.9392C414.64 70.7769 414.61 70.33 414.579 69.8764L414.579 69.8756C414.548 69.4082 414.516 68.9338 414.516 68.7562C414.455 67.6241 414.455 66.492 414.455 65.3804V65.3788V65.3782C414.455 64.9863 414.455 63.7927 414.516 63.0723C414.578 62.8457 414.578 62.6192 414.578 62.3927C414.578 61.7748 414.352 61.3218 414.063 61.157C413.878 60.9717 413.61 60.9717 413.384 60.9717C411.468 60.9717 410.398 63.7313 409.78 65.42C409.78 65.2321 409.748 64.7054 409.717 64.1861V64.1856V64.1853V64.1848L409.717 64.1832C409.686 63.6792 409.656 63.1828 409.656 63.0105C409.656 62.9939 409.657 62.9685 409.659 62.9366C409.661 62.9085 409.663 62.8754 409.665 62.839C409.679 62.6081 409.702 62.2431 409.656 62.1661C409.553 61.1982 408.874 61.1982 408.153 61.1982C407.949 61.1982 407.359 61.215 406.794 61.2311L406.793 61.2311C406.275 61.2458 405.777 61.26 405.62 61.26ZM424.483 81.2157C424.483 82.0601 424.483 82.8427 424.545 83.687C424.545 83.8264 424.53 84.2688 424.515 84.726C424.5 85.2147 424.483 85.7203 424.483 85.8906C424.483 86.1171 424.524 86.7349 424.565 87.3528C424.607 87.9706 424.648 88.5884 424.648 88.8149C424.648 91.4098 424.648 92.6454 423.124 92.6454C422.928 92.6454 422.408 92.6145 421.888 92.5837L421.888 92.5836L421.888 92.5836C421.368 92.5527 420.848 92.5219 420.653 92.5219C420.439 92.5219 419.808 92.552 419.169 92.5826C418.516 92.6138 417.854 92.6454 417.625 92.6454C417.131 92.6454 415.937 92.6454 415.937 90.8537C415.937 90.7069 415.953 90.5761 415.968 90.4477C415.983 90.324 415.998 90.2025 415.998 90.0712C416.101 89.0003 416.163 87.9912 416.163 86.9203C416.163 86.5391 416.124 85.4397 416.084 84.3122L416.084 84.3101V84.3094C416.042 83.123 415.998 81.9062 415.998 81.4629C415.998 79.6574 416.033 77.8751 416.068 76.0986V76.0973V76.096V76.0946V76.0932V76.0919V76.0906V76.0893V76.0879V76.0865V76.0852V76.0838V76.0824L416.068 76.0764L416.069 76.06C416.08 75.4785 416.091 74.8976 416.101 74.3167C416.101 74.126 416.087 73.5584 416.072 72.9766C416.056 72.3649 416.039 71.7376 416.039 71.516C416.039 71.2585 416.07 70.512 416.101 69.7655L416.102 69.7591C416.132 69.0147 416.163 68.2717 416.163 68.015C416.163 67.0676 416.101 66.0997 416.039 65.1524C416.039 65.0132 416.016 64.6004 415.991 64.1736L415.991 64.1722C415.964 63.7153 415.937 63.2427 415.937 63.0724C415.937 61.4455 417.296 61.4455 417.79 61.4455C417.896 61.4455 418.239 61.4591 418.603 61.4736L418.604 61.4736C419.014 61.4899 419.45 61.5073 419.602 61.5073C419.767 61.5073 421.559 61.5073 422.341 61.3837C422.448 61.3837 422.554 61.3701 422.667 61.3556C422.794 61.3393 422.93 61.3219 423.083 61.3219C424.03 61.3219 424.03 61.8368 424.03 62.5164C424.03 62.9694 424.298 63.2372 424.483 63.2372C424.607 63.2372 424.71 63.1754 425.389 62.6193C425.945 62.2281 427.469 61.1778 429.611 61.1778C431.856 61.1778 433.38 62.1869 433.936 62.5782C434.039 62.6811 434.615 63.196 434.78 63.196L435.171 62.9283C435.285 62.8145 435.379 62.7498 435.481 62.68C435.526 62.6487 435.573 62.6164 435.624 62.5782L435.798 62.4897C437.658 61.539 438.607 61.0542 440.526 61.0542C443.615 61.0542 444.912 62.4546 445.365 62.9694C446.704 64.4728 446.828 67.0676 446.828 68.3651C446.828 68.6599 446.799 69.5035 446.77 70.3855L446.77 70.3897C446.738 71.3546 446.704 72.3646 446.704 72.7516C446.704 73.1584 446.718 74.3205 446.733 75.5239L446.733 75.5302V75.5325C446.749 76.8242 446.766 78.1616 446.766 78.6621C446.766 79.0127 446.751 80.0603 446.736 81.1363L446.736 81.1466C446.72 82.2791 446.704 83.4406 446.704 83.8518C446.704 84.096 446.719 84.783 446.734 85.4775L446.734 85.4796V85.4804C446.75 86.1902 446.766 86.9074 446.766 87.1674C446.766 87.389 446.79 88.0442 446.816 88.7136L446.816 88.7193C446.842 89.4167 446.869 90.1283 446.869 90.3801C446.869 91.7393 446.704 92.6248 445.242 92.6248C445.053 92.6248 444.54 92.5866 444.008 92.547L444.008 92.547L444.008 92.547L444.007 92.547C443.435 92.5043 442.841 92.4601 442.606 92.4601C442.409 92.4601 441.847 92.4976 441.259 92.5368L441.258 92.5369L441.257 92.537C440.613 92.5799 439.939 92.6248 439.681 92.6248C438.157 92.6248 438.157 91.5539 438.157 90.2771C438.157 90.0375 438.186 89.3283 438.216 88.5979L438.217 88.5963V88.5958L438.217 88.5932L438.217 88.5915C438.248 87.8173 438.281 87.0206 438.281 86.7349C438.281 86.2394 438.266 85.729 438.251 85.211V85.21V85.2091V85.2081V85.2071V85.2062V85.2054V85.2046C438.235 84.6698 438.219 84.1269 438.219 83.584C438.219 82.9044 438.25 82.2454 438.281 81.5864L438.281 81.5845C438.312 80.9262 438.343 80.2678 438.343 79.5888C438.343 79.4016 438.329 78.9171 438.314 78.4132L438.314 78.4034V78.4029V78.4016L438.314 78.3982C438.298 77.8538 438.281 77.2898 438.281 77.0557V71.1041C438.281 70.7128 438.157 69.8066 438.116 69.7037C438.055 69.4771 437.828 68.9829 437.107 68.9829C435.769 68.9829 435.542 70.7128 435.542 71.969C435.542 72.3603 435.542 72.7516 435.604 73.1429C435.604 73.6648 435.614 74.6809 435.624 75.7214L435.624 75.7286C435.634 76.8205 435.645 77.9381 435.645 78.5385C435.645 78.7601 435.62 79.4153 435.595 80.0847C435.569 80.7839 435.542 81.4987 435.542 81.7512V85.4581C435.542 85.6797 435.567 86.3053 435.592 86.9446C435.618 87.6122 435.645 88.2947 435.645 88.5472C435.645 88.8561 435.66 89.2628 435.676 89.6696C435.691 90.0763 435.707 90.483 435.707 90.792C435.707 92.1512 435.48 92.6454 433.524 92.6454C433.297 92.6454 432.664 92.63 432.031 92.6145C431.397 92.5991 430.764 92.5836 430.538 92.5836C430.391 92.5836 429.998 92.5996 429.613 92.6154C429.242 92.6305 428.877 92.6454 428.746 92.6454C427.325 92.6454 427.037 91.8628 427.037 90.5242C427.037 90.1761 427.075 89.1505 427.115 88.0903L427.115 88.0888V88.0883L427.115 88.0824C427.158 86.95 427.201 85.78 427.201 85.3551C427.201 85.0398 427.192 84.1114 427.182 83.1431L427.182 83.1372C427.171 82.0838 427.16 80.9847 427.16 80.5773C427.16 79.2284 427.201 77.4831 427.243 75.7377C427.284 73.9924 427.325 72.247 427.325 70.8981C427.325 69.4977 426.975 68.9211 426.089 68.9211C425.41 68.9211 425.018 69.3124 424.792 69.992C424.442 70.7746 424.442 71.3306 424.565 73.0399C424.565 73.45 424.551 74.6419 424.536 75.8681C424.52 77.167 424.504 78.5043 424.504 78.9916V81.2981L424.483 81.2157ZM467.401 91.3473C467.896 90.956 467.957 90.6059 467.957 90.0499H467.999V87.7434C467.999 87.4784 468.041 86.5318 468.072 85.8573L468.072 85.8482L468.072 85.8402L468.073 85.835C468.089 85.4716 468.102 85.1917 468.102 85.1485C468.102 84.3454 467.195 83.7275 466.454 83.7275C466.206 83.7275 465.994 83.7973 465.755 83.8756L465.754 83.8758L465.754 83.8759L465.754 83.8761C465.675 83.9019 465.593 83.9286 465.507 83.9541C463.55 84.9014 463.262 85.025 461.182 85.025C460.173 85.025 458.525 84.9426 457.454 83.4392C457.063 82.9244 456.837 82.2036 456.837 81.5858C456.837 80.1854 457.681 80.1854 458.175 80.1854C458.532 80.1854 459.479 80.2138 460.379 80.2407C461.193 80.2651 461.968 80.2883 462.232 80.2883C462.467 80.2883 463.111 80.2441 463.732 80.2014C464.309 80.1618 464.865 80.1236 465.054 80.1236C465.154 80.1236 465.461 80.153 465.775 80.1832L465.775 80.1832C466.104 80.2148 466.441 80.2472 466.557 80.2472C467.693 80.303 468.29 79.0629 468.485 78.657C468.506 78.6139 468.522 78.5802 468.534 78.5584C468.575 78.2289 468.699 72.9981 468.699 72.3185C468.699 70.0737 468.534 67.2112 466.557 64.3898C464.353 61.1977 461.594 60.7446 458.896 60.7446C452.944 60.7446 449.526 64.5133 449.011 71.5977C448.949 72.1537 448.723 76.4373 448.723 76.8286C448.723 82.1212 448.887 85.6634 451.256 88.8143C453.686 92.1299 457.043 92.7477 460.544 92.7477C464.415 92.7477 466.66 91.9034 467.401 91.3473ZM459.411 73.8012C459.061 73.8012 457.619 73.8012 457.331 73.6777V73.6983C456.775 73.4717 456.775 72.4008 456.775 72.0096C456.775 70.4856 456.775 67.7878 458.793 67.7878C459.061 67.7878 460.193 67.7878 460.708 69.3117C460.873 69.9294 460.873 71.0618 460.873 72.2355V72.2361C460.873 73.5747 460.358 73.8012 459.411 73.8012ZM472.57 61.26H474.753C474.923 61.26 475.433 61.2454 475.958 61.2304L475.959 61.2304C476.514 61.2145 477.085 61.1982 477.286 61.1982C478.027 61.1982 478.707 61.1982 478.81 62.1661C478.856 62.2431 478.833 62.6081 478.818 62.839C478.814 62.9168 478.81 62.9793 478.81 63.0105C478.81 63.1828 478.84 63.6792 478.87 64.1832L478.87 64.1848V64.1853V64.1856V64.1861L478.87 64.1878V64.1884C478.901 64.7069 478.933 65.2323 478.933 65.42C479.551 63.7313 480.622 60.9717 482.537 60.9717C482.764 60.9717 483.031 60.9717 483.217 61.157C483.505 61.3218 483.711 61.7748 483.711 62.3927C483.711 62.6192 483.711 62.8457 483.649 63.0723C483.587 63.7931 483.587 64.9875 483.587 65.3788C483.587 66.4909 483.587 67.6235 483.649 68.7562C483.649 68.9338 483.681 69.4082 483.712 69.8756L483.712 69.8764C483.743 70.33 483.773 70.7769 483.773 70.9392C483.773 71.2275 483.773 72.1336 482.805 72.1336C482.743 72.1336 482.563 72.0925 482.383 72.0513L482.383 72.0513C482.202 72.0101 482.022 71.9689 481.96 71.9689C481.569 71.9689 479.53 72.5249 479.53 76.8085V79.671C479.53 79.9167 479.516 80.608 479.502 81.3307L479.501 81.3396L479.501 81.3432C479.485 82.1312 479.469 82.9537 479.469 83.275C479.469 83.5633 479.469 83.7075 479.53 84.8607C479.53 85.0489 479.516 85.6136 479.501 86.1995L479.501 86.2019V86.2026L479.501 86.2048C479.485 86.8352 479.469 87.4888 479.469 87.7233C479.469 87.8674 479.484 88.0219 479.5 88.1764C479.515 88.3308 479.53 88.4853 479.53 88.6294C479.592 88.9177 479.757 90.2564 479.757 90.5447C479.757 92.2952 478.974 92.5629 478.192 92.5629C478.027 92.5629 477.564 92.532 477.1 92.5011C476.637 92.4702 476.174 92.4393 476.009 92.4393C475.787 92.4393 475.123 92.4787 474.443 92.519L474.443 92.519L474.442 92.519C473.733 92.5611 473.007 92.6041 472.755 92.6041C471.231 92.6041 471.004 91.9863 471.004 91.1007V87.6615C471.004 87.3885 470.98 86.5691 470.954 85.7352C470.928 84.8708 470.901 83.9908 470.901 83.6869C470.901 83.3545 470.926 82.4456 470.951 81.517L470.951 81.5096L470.952 81.5064V81.5062V81.5055L470.952 81.5037C470.978 80.538 471.004 79.5538 471.004 79.1768V69.7859C471.004 69.2915 470.98 67.8926 470.954 66.4681L470.954 66.4637V66.4621L470.954 66.445V66.4437L470.954 66.4402C470.928 64.9662 470.901 63.4709 470.901 62.9281C470.901 62.3721 470.901 61.3012 472.59 61.3012L472.57 61.26ZM489.085 65.6263C489.085 68.736 491.433 71.0837 494.542 71.0837C497.652 71.0837 500 68.736 500 65.6263C500 62.5166 497.652 60.1689 494.542 60.1689C491.433 60.1689 489.085 62.5166 489.085 65.6263ZM490.053 65.6263C490.053 63.0727 491.989 61.1368 494.542 61.1368C497.096 61.1368 499.032 63.0727 499.032 65.6263C499.032 68.18 497.096 70.1158 494.542 70.1158C491.989 70.1158 490.053 68.18 490.053 65.6263ZM497.117 68.5095L495.963 66.1618H495.984C496.622 65.9352 497.158 65.4616 497.158 64.4319C497.158 63.155 496.272 62.5578 495.119 62.5578H492.339V68.5095H493.595V66.3471H494.625L495.696 68.5095H497.117ZM493.616 63.7111H495.037C495.552 63.7111 495.881 63.9376 495.881 64.4525C495.881 64.9673 495.572 65.235 495.037 65.235H493.616V63.7111ZM157.595 83.478C156.04 83.4806 154.601 83.4806 153.527 83.4806V83.5012C154.73 83.5012 156.283 83.4891 157.595 83.478ZM157.595 83.478C159.172 83.4755 160.868 83.4703 162.424 83.46H160.056C159.713 83.46 158.991 83.4661 158.106 83.4737L157.595 83.478ZM204.209 74.8736C204.209 74.5103 204.194 73.4449 204.179 72.3582C204.163 71.2271 204.147 70.0729 204.147 69.6633C204.147 69.4059 204.162 68.7005 204.178 67.9952L204.178 67.9895C204.193 67.2861 204.209 66.5838 204.209 66.327C204.209 66.1059 204.233 65.4529 204.258 64.7849L204.258 64.7808C204.285 64.0816 204.312 63.3669 204.312 63.1144C204.312 61.7552 204.126 60.849 202.685 60.849C202.484 60.849 201.954 60.8883 201.412 60.9285L201.411 60.9285L201.411 60.9285C200.843 60.9706 200.26 61.0138 200.028 61.0138C199.846 61.0138 199.306 60.9781 198.73 60.9399L198.73 60.9399C198.068 60.8961 197.358 60.849 197.083 60.849C195.559 60.849 195.559 61.9199 195.559 63.2174C195.559 63.4548 195.588 64.1534 195.617 64.8791L195.617 64.8801V64.8805C195.649 65.6649 195.683 66.4807 195.683 66.7801C195.683 67.2875 195.673 67.7998 195.663 68.3196C195.652 68.8548 195.641 69.3979 195.641 69.9516C195.641 70.6312 195.667 71.2954 195.693 71.9595C195.719 72.6237 195.744 73.2878 195.744 73.9674C195.744 74.1537 195.73 74.6342 195.716 75.1375L195.716 75.1409L195.716 75.1428L195.716 75.1445L195.716 75.1454C195.699 75.6969 195.683 76.2741 195.683 76.5211V82.5139C195.683 82.9052 195.559 83.8114 195.518 83.9349C195.456 84.1615 195.23 84.6557 194.488 84.6557C193.15 84.6557 192.902 82.9052 192.902 81.6696C192.902 81.2783 192.902 80.887 192.964 80.4751C192.964 79.9552 192.979 78.9401 192.994 77.8966L192.994 77.8936V77.8921V77.8911C193.01 76.787 193.026 75.6518 193.026 75.0383C193.026 74.819 192.997 74.1751 192.967 73.5107C192.935 72.8024 192.902 72.0707 192.902 71.8051V68.0775C192.902 67.8583 192.931 67.2433 192.961 66.6087C192.993 65.9323 193.026 65.2335 193.026 64.9678C193.026 64.6598 193.041 64.2494 193.057 63.8387L193.057 63.8379V63.8372V63.8368L193.057 63.8352C193.072 63.4233 193.088 63.0114 193.088 62.7025C193.088 61.3433 192.861 60.8285 190.884 60.8285C190.658 60.8285 190.019 60.8439 189.381 60.8593C188.742 60.8748 188.104 60.8902 187.878 60.8902C187.733 60.8902 187.352 60.8748 186.971 60.8593C186.59 60.8439 186.209 60.8285 186.065 60.8285C184.665 60.8285 184.356 61.611 184.356 62.9702C184.356 63.3161 184.394 64.3304 184.433 65.3853L184.433 65.3862V65.3866L184.433 65.3882C184.476 66.5311 184.521 67.721 184.521 68.1599C184.521 68.4836 184.511 69.4101 184.502 70.3784L184.501 70.3827V70.3843L184.501 70.3956C184.491 71.455 184.48 72.5606 184.48 72.9789C184.48 74.3367 184.521 76.0902 184.562 77.844L184.562 77.8452V77.8461V77.8469L184.562 77.8494L184.562 77.8519V77.8526V77.8536L184.562 77.8548C184.603 79.6086 184.644 81.3621 184.644 82.7199C184.644 82.9464 184.644 83.1524 184.603 83.3377C184.315 83.9349 183.882 84.4498 183.203 84.6351H183.1C182.647 84.5527 182.338 84.2438 182.132 83.7496C182.07 83.4613 181.988 82.8023 181.988 82.4728V76.4799C181.988 76.248 181.971 75.6922 181.956 75.1497C181.941 74.6325 181.926 74.1273 181.926 73.9262C181.926 73.2466 181.957 72.5825 181.988 71.9183C182.019 71.2542 182.049 70.59 182.049 69.9104C182.049 69.3697 182.034 68.829 182.018 68.2936L182.018 68.2925C182.003 67.7679 181.988 67.2484 181.988 66.7389C181.988 66.4561 182.014 65.6726 182.04 64.9031L182.041 64.8984L182.041 64.8975C182.066 64.1559 182.091 63.4285 182.091 63.1762C182.091 61.8787 182.091 60.8079 180.567 60.8079C180.292 60.8079 179.582 60.8549 178.921 60.8987L178.92 60.8987L178.92 60.8987L178.92 60.8987C178.343 60.9369 177.804 60.9726 177.622 60.9726C177.387 60.9726 176.787 60.9283 176.209 60.8857C175.672 60.8461 175.154 60.8079 174.965 60.8079C173.503 60.8079 173.338 61.714 173.338 63.0732C173.338 63.3257 173.365 64.0404 173.391 64.7396L173.391 64.7437C173.417 65.4117 173.441 66.0647 173.441 66.2859C173.441 66.5302 173.456 67.2223 173.472 67.922L173.472 67.9239V67.9246L173.472 67.9272L173.472 67.9289C173.487 68.6425 173.503 69.3626 173.503 69.6221C173.503 70.0317 173.487 71.1859 173.471 72.317C173.456 73.4037 173.441 74.4691 173.441 74.8324H156.698C157.057 74.8324 157.973 74.854 158.982 74.8779L158.985 74.8779L158.986 74.878C159.946 74.9006 160.991 74.9253 161.723 74.9353H159.087C157.707 74.9353 138.37 74.9765 138.37 74.9765C137.958 74.9765 136.825 74.9559 135.857 74.9353C135.322 74.8118 134.271 74.194 133.839 72.1346C133.839 71.7701 133.839 71.6669 133.838 71.6669L133.837 71.6673C133.837 71.6685 133.837 71.6719 133.837 71.6771L133.835 71.705L133.835 71.7056C133.831 71.8064 133.821 72.0347 133.798 71.5167C133.798 71.232 133.781 70.4074 133.766 69.604L133.766 69.6008V69.5998L133.766 69.5974V69.5966L133.765 69.5942L133.765 69.5914L133.765 69.5837C133.75 68.8253 133.736 68.0901 133.736 67.851C133.736 66.8213 133.736 66.3271 133.798 64.6795C133.798 64.6795 133.715 64.7825 133.715 63.8352C133.715 62.8879 133.674 59.2839 133.674 59.2839C133.674 59.0491 133.691 58.8087 133.707 58.5771C133.722 58.3619 133.736 58.1544 133.736 57.9659C133.736 57.7676 133.72 57.1832 133.704 56.6068L133.704 56.6052C133.689 56.0446 133.674 55.4919 133.674 55.3093C133.674 55.1232 133.709 54.5884 133.742 54.0878L133.742 54.0868L133.742 54.0855L133.742 54.0845V54.0843L133.742 54.0836L133.742 54.0829L133.742 54.0817C133.771 53.6423 133.798 53.2306 133.798 53.1057C133.798 52.3643 133.406 51.6435 132.377 51.6435C132.093 51.6435 131.264 51.7024 130.451 51.7601C129.669 51.8156 128.902 51.8701 128.649 51.8701C128.479 51.8701 128.017 51.8426 127.571 51.816L127.571 51.816L127.571 51.816C127.153 51.7911 126.75 51.7671 126.61 51.7671C125.251 51.7671 125.251 53.1263 125.251 53.5176C125.251 53.77 125.283 54.5007 125.315 55.2155L125.315 55.2158V55.2159L125.315 55.2163C125.345 55.9007 125.375 56.5705 125.375 56.792V58.872C125.375 59.4429 125.33 60.166 125.287 60.8554L125.287 60.8557L125.287 60.8562C125.247 61.4846 125.21 62.0852 125.21 62.5172C125.21 62.8433 125.244 62.8825 125.277 62.9195C125.306 62.9526 125.334 62.984 125.334 63.2174C125.334 63.5646 125.317 64.5463 125.302 65.5059V65.5062V65.5063L125.302 65.5076V65.508L125.302 65.5095L125.302 65.5112C125.286 66.4277 125.272 67.3229 125.272 67.6245C125.272 68.5818 125.256 69.179 125.241 69.776L125.241 69.7766C125.225 70.3738 125.21 70.971 125.21 71.9286C125.21 72.5464 125.231 74.5235 125.251 75.9856C125.21 76.0886 125.21 76.171 125.21 76.2946C125.21 76.4387 125.21 76.727 125.272 77.0565V77.5302C125.272 77.8781 125.256 78.8034 125.24 79.7067C125.225 80.568 125.21 81.4092 125.21 81.7108C125.272 83.3583 125.993 83.4613 127.084 83.4613C127.179 83.4613 127.338 83.4505 127.535 83.4372C127.723 83.4245 127.944 83.4095 128.176 83.3995C128.538 83.3995 129.129 83.3843 129.772 83.3678C130.188 83.3571 130.626 83.3458 131.038 83.3377C131.361 83.3472 131.709 83.361 132.016 83.3732L132.017 83.3733L132.018 83.3733L132.019 83.3734C132.376 83.3876 132.676 83.3995 132.809 83.3995C133.056 83.3995 133.242 83.3583 133.406 83.2759H135.816C136.632 83.2759 140.537 83.3263 144.276 83.3745L144.279 83.3746C147.711 83.4188 151.001 83.4613 151.632 83.4613C152.106 83.4613 154.862 83.4275 157.492 83.3953L157.5 83.3952L157.509 83.3951L157.516 83.395L157.522 83.3949L157.526 83.3949L157.528 83.3949L157.53 83.3948L157.531 83.3948C159.92 83.3656 162.195 83.3377 162.547 83.3377C163.049 83.3377 164.471 83.3537 165.87 83.3693L165.874 83.3694C167.227 83.3846 168.558 83.3995 169.013 83.3995H163.721C164.662 83.3995 165.693 83.4156 166.463 83.4277L166.464 83.4277C166.923 83.4349 167.289 83.4407 167.489 83.4407C167.634 83.4407 170.887 83.4201 173.462 83.3995C173.462 83.893 173.445 84.3537 173.433 84.6939V84.6945L173.433 84.6953L173.433 84.7021C173.426 84.8975 173.421 85.0524 173.421 85.15C173.421 86.4474 173.544 89.0422 174.903 90.5662C175.356 91.0811 176.654 92.502 179.764 92.502C181.349 92.502 182.297 92.1725 183.635 91.5135C184.418 91.946 185.55 92.3991 186.951 92.3991C189.216 92.3991 190.74 91.39 191.296 90.9781C191.42 90.8545 191.976 90.3603 192.161 90.3603L192.552 90.6486C192.666 90.7623 192.76 90.827 192.862 90.8968C192.907 90.9281 192.954 90.9604 193.005 90.9987C194.982 92.0284 195.95 92.5226 197.927 92.5226C201.037 92.5226 202.335 91.1017 202.788 90.5868C204.126 89.0628 204.25 86.468 204.25 85.1706C204.25 84.8741 204.221 84.013 204.192 83.118L204.192 83.1135C204.16 82.145 204.126 81.1377 204.126 80.7635C204.126 80.356 204.141 79.181 204.155 77.9654L204.156 77.963C204.171 76.6607 204.188 75.3123 204.188 74.8118L204.209 74.8736ZM161.723 74.9353C163.206 74.9353 164.689 74.8942 164.689 74.8942C165.081 74.9005 165.431 74.9068 165.748 74.9126L165.752 74.9126C166.463 74.9255 167.006 74.9353 167.489 74.9353H162.485H161.723ZM170.517 74.9353C171.402 74.9353 172.556 74.9148 173.441 74.8942C172.885 74.9148 171.814 74.9353 170.517 74.9353ZM175.743 57.33L175.742 57.33C175.325 57.3598 174.921 57.3887 174.782 57.3887V57.4093C173.423 57.4093 173.423 56.0501 173.423 55.6382C173.423 55.5762 173.429 55.4792 173.436 55.3583C173.448 55.1577 173.464 54.8911 173.464 54.6085C173.423 54.1554 173.423 53.7641 173.423 53.5994C173.423 53.2081 173.423 51.8489 174.782 51.8489C174.921 51.8489 175.325 51.8729 175.743 51.8978C176.189 51.9244 176.651 51.9518 176.821 51.9518C177.073 51.9518 177.839 51.8975 178.621 51.842L178.623 51.8419L178.623 51.8418C179.436 51.7841 180.265 51.7253 180.548 51.7253C181.557 51.7253 181.969 52.4461 181.969 53.1875C181.969 53.3728 181.928 54.0524 181.887 54.6085C181.928 55.1851 181.969 55.8441 181.969 56.0295C181.969 56.7708 181.557 57.4916 180.548 57.4916C180.265 57.4916 179.436 57.4328 178.623 57.3751C177.841 57.3196 177.073 57.2651 176.821 57.2651C176.651 57.2651 176.189 57.2981 175.743 57.33L175.743 57.33ZM186.688 57.33L186.688 57.33L186.688 57.3299C187.129 57.2981 187.585 57.2651 187.755 57.2651C188.008 57.2651 188.775 57.3196 189.558 57.3751C190.371 57.4328 191.2 57.4916 191.483 57.4916C192.513 57.4916 192.904 56.7708 192.904 56.0295C192.904 55.8441 192.863 55.1851 192.822 54.6085C192.863 54.0524 192.904 53.3728 192.904 53.1875C192.904 52.4461 192.492 51.7253 191.483 51.7253C191.2 51.7253 190.371 51.7841 189.558 51.8418L189.557 51.8419C188.775 51.8974 188.008 51.9518 187.755 51.9518C187.582 51.9518 187.107 51.9234 186.656 51.8964L186.656 51.8963C186.25 51.872 185.864 51.8489 185.737 51.8489C184.378 51.8489 184.378 53.2081 184.378 53.5994V54.6085V55.6382C184.378 56.0501 184.378 57.4093 185.737 57.4093V57.3887C185.877 57.3887 186.276 57.3598 186.688 57.33ZM197.625 57.3314L197.625 57.3314C197.217 57.3607 196.828 57.3887 196.691 57.3887V57.4093C195.332 57.4093 195.332 56.0501 195.332 55.6382C195.332 55.5762 195.338 55.4792 195.345 55.3583L195.345 55.3578L195.345 55.3573V55.357C195.357 55.1566 195.373 54.8905 195.373 54.6085C195.332 54.1554 195.332 53.7641 195.332 53.5994C195.332 53.2081 195.332 51.8489 196.691 51.8489C196.828 51.8489 197.217 51.8722 197.624 51.8966L197.625 51.8966C198.074 51.9235 198.547 51.9518 198.73 51.9518C198.97 51.9518 199.724 51.8985 200.5 51.8436L200.5 51.8436C201.323 51.7853 202.171 51.7253 202.458 51.7253C203.467 51.7253 203.879 52.4461 203.879 53.1875C203.879 53.3728 203.837 54.0524 203.796 54.6085C203.837 55.1851 203.879 55.8441 203.879 56.0295C203.879 56.7708 203.467 57.4916 202.458 57.4916C202.171 57.4916 201.323 57.4316 200.5 57.3734C199.724 57.3184 198.97 57.2651 198.73 57.2651C198.547 57.2651 198.074 57.2991 197.625 57.3314ZM121.402 72.9162V71.5364C121.402 68.921 120.949 63.5665 117.777 61.5689C116.933 61.0129 115.8 60.498 113.823 60.498C113.823 60.498 111.908 60.0861 109.252 60.498C107.295 60.8069 106.142 61.0129 105.298 61.5689C102.126 63.5665 101.673 68.921 101.673 71.5364C101.673 75.5934 102.414 78.4972 103.712 80.1859C105.524 82.616 108.181 82.9661 109.252 82.9661C110.487 82.9661 110.94 82.8013 112.361 82.1217C112.485 82.0599 112.65 81.9981 112.814 81.9981C113.103 81.9981 113.618 82.2865 113.618 82.9043C113.618 83.3985 113.453 84.2635 113.164 84.6548C112.876 85.1078 112.32 85.6227 109.931 85.6227C108.469 85.6227 107.172 85.2932 106.307 84.8401C105.689 84.4282 105.586 84.4282 105.339 84.4282C104.824 84.4282 103.938 84.9431 103.815 85.4579C103.774 85.6227 103.712 86.3023 103.712 86.5288C103.712 86.6066 103.726 86.8634 103.74 87.1346L103.74 87.1361L103.74 87.1367C103.756 87.4392 103.774 87.759 103.774 87.8674C103.774 88.1844 103.757 88.4904 103.741 88.7885L103.741 88.7888C103.726 89.0716 103.712 89.3472 103.712 89.6179C103.712 90.5241 103.877 91.0801 105.524 91.6155C107.789 92.3363 108.737 92.3363 109.931 92.3363C110.106 92.3363 110.599 92.3517 111.093 92.3672L111.095 92.3672C111.589 92.3827 112.083 92.3981 112.258 92.3981C113.679 92.3981 117.407 91.9862 119.322 90.6476C120.846 89.5767 121.464 88.3205 121.464 84.1399C121.464 83.9538 121.45 83.4228 121.435 82.8661L121.435 82.8646C121.419 82.2516 121.402 81.6079 121.402 81.3597C121.402 81.0997 121.418 80.3352 121.433 79.5786L121.433 79.5778C121.449 78.8367 121.464 78.1033 121.464 77.8587C121.464 77.0354 121.448 76.212 121.433 75.3887L121.433 75.3875C121.417 74.5637 121.402 73.7399 121.402 72.9162ZM111.373 75.9847C111.023 75.9847 110.343 75.7582 109.911 74.9138C109.519 74.1312 109.519 73.6164 109.519 72.0307V72.0306V70.9598C109.519 68.6532 110.137 67.5618 111.393 67.5618C112.814 67.5618 113.144 69.2505 113.144 69.4152C113.206 69.6417 113.206 73.1427 113.206 73.7194C113.206 75.1815 112.176 75.9847 111.393 75.9847H111.373ZM98.7894 62.8182L98.7895 62.8457V62.8045L98.7894 62.8182ZM97.1419 60.5803C98.6147 60.5803 98.7872 61.4743 98.7894 62.8182C98.7885 63.0946 98.7616 63.8136 98.7355 64.5101C98.7106 65.1746 98.6865 65.8184 98.6865 66.0377C98.6865 66.2978 98.6707 67.0202 98.6551 67.7352L98.655 67.7389C98.6398 68.4383 98.6247 69.1298 98.6247 69.374C98.6247 69.7836 98.6408 70.9378 98.6565 72.0689C98.6716 73.1556 98.6865 74.221 98.6865 74.5843C98.6865 75.0715 98.6701 76.4034 98.6543 77.697C98.6393 78.9182 98.6247 80.1053 98.6247 80.5153C98.6247 80.9029 98.6585 81.9208 98.6907 82.8924C98.7201 83.7793 98.7483 84.6276 98.7483 84.9224C98.7483 86.2199 98.6453 88.8353 97.2861 90.3593C96.833 90.8741 95.5356 92.2745 92.4259 92.2745C91.3414 92.2745 90.4243 92.2559 89.5963 92.2391H89.5962H89.596C88.9146 92.2253 88.2935 92.2127 87.6893 92.2127C87.5642 92.2127 87.4227 92.2165 87.2714 92.2205C86.3013 92.2462 84.9297 92.2825 84.9297 91.4096V83.3367C84.9297 82.4718 85.6505 82.5129 85.9388 82.8013C86.2271 83.1102 86.5772 83.4809 86.8861 83.7486C87.2774 84.0781 87.8128 84.3664 88.3895 84.3664C89.1103 84.387 89.6869 84.2634 89.9546 83.6456C89.9958 83.522 90.1194 82.6365 90.1194 82.2246V76.2318C90.1194 75.9998 90.1356 75.4441 90.1514 74.9016C90.1664 74.3844 90.1812 73.8791 90.1812 73.6781C90.1812 73.0114 90.1505 72.3548 90.1197 71.6958V71.6956V71.6954C90.0887 71.0315 90.0576 70.3649 90.0576 69.6829C90.0576 69.1422 90.0733 68.6015 90.0889 68.0661V68.0657V68.0654C90.1042 67.5406 90.1194 67.021 90.1194 66.5114C90.1194 66.2281 90.0873 65.4423 90.0558 64.6715L90.0558 64.6711V64.6709L90.0557 64.6694C90.0255 63.928 89.9958 63.2009 89.9958 62.9486C89.9958 61.6512 89.9958 60.5803 91.5404 60.5803C91.8154 60.5803 92.5255 60.6273 93.1868 60.6712L93.1872 60.6712C93.7637 60.7094 94.3031 60.7451 94.4853 60.7451C94.7201 60.7451 95.3201 60.7008 95.8981 60.6582C96.4353 60.6185 96.9535 60.5803 97.1419 60.5803ZM84.9695 72.9368V71.5364C84.9695 68.921 84.5165 63.5665 81.345 61.5689C80.5006 61.0129 79.368 60.498 77.391 60.498C77.391 60.498 75.4963 60.0861 72.8191 60.498C70.8627 60.8069 69.7094 61.0129 68.865 61.5689C65.6936 63.5665 65.2405 68.921 65.2405 71.5364C65.2405 72.6485 65.3023 73.6782 65.4052 74.6255H64.2932C64.0867 74.6255 61.5679 74.63 57.8949 74.6366L57.8665 74.6367C47.9748 74.6545 29.7613 74.6873 25.7412 74.6873V74.6049C25.7412 74.2418 25.7313 73.1771 25.7212 72.0909L25.7212 72.0895L25.7212 72.0885C25.7107 70.9577 25.7 69.8041 25.7 69.3946C25.7 69.15 25.7101 68.4565 25.7203 67.7559C25.7307 67.0408 25.7412 66.3184 25.7412 66.0584C25.7412 65.8391 25.7653 65.1952 25.7902 64.5308C25.8167 63.8224 25.8441 63.0908 25.8441 62.8251C25.8441 61.4865 25.6794 60.5598 24.1966 60.5598C24.0082 60.5598 23.49 60.598 22.9529 60.6376H22.9528C22.3748 60.6803 21.7748 60.7245 21.54 60.7245C21.3578 60.7245 20.8184 60.6888 20.2419 60.6506L20.2415 60.6506L20.2413 60.6506C19.58 60.6068 18.8701 60.5598 18.5951 60.5598C17.0711 60.5598 17.0711 61.6307 17.0711 62.9281C17.0711 63.1806 17.0959 63.9085 17.1211 64.6504L17.1211 64.6505C17.1473 65.4215 17.1741 66.2075 17.1741 66.4909C17.1741 66.9982 17.1591 67.5105 17.1439 68.0302L17.1438 68.0304C17.1282 68.5656 17.1123 69.1087 17.1123 69.6623C17.1123 70.3445 17.1434 71.0111 17.1744 71.6752L17.1744 71.6753C17.2052 72.3343 17.2358 72.9908 17.2358 73.6576C17.2358 73.846 17.2215 74.3402 17.2067 74.8526L17.2067 74.8527C17.1907 75.4041 17.1741 75.9764 17.1741 76.2112V82.2041C17.1741 82.616 17.0711 83.5015 17.0093 83.6251C16.7416 84.2635 16.165 84.3665 15.4442 84.3459C14.8469 84.3459 14.3321 84.0575 13.9408 83.728C13.6319 83.4603 13.2818 83.0896 12.9935 82.7807C12.7052 82.4924 11.9844 82.4512 11.9844 83.3162V91.389C11.9844 92.2532 13.3287 92.2112 14.2839 92.1813C14.4441 92.1763 14.5933 92.1716 14.7234 92.1716C15.3395 92.1716 15.9641 92.1843 16.647 92.1982L16.6479 92.1982C17.4713 92.2149 18.3795 92.2334 19.46 92.2334C22.5697 92.2334 23.8671 90.833 24.3408 90.3181C25.7 88.7942 25.803 86.1787 25.803 84.8813C25.803 84.6136 25.803 83.8928 25.7618 83.1102C30.1675 83.1102 44.9835 83.1262 56.1866 83.1382H56.1942L56.2164 83.1382C63.0137 83.1455 68.4748 83.1514 69.4623 83.1514C70.1565 83.1514 71.5985 83.1348 72.9868 83.1188C74.2754 83.1039 75.5178 83.0896 76.0729 83.0896V83.0073C76.1629 83.0073 76.515 82.909 76.7633 82.8397C76.856 82.8138 76.9343 82.7919 76.9791 82.7807C85.4226 81.1538 84.9901 72.8544 84.9901 72.8544L84.9695 72.9368ZM73.4987 74.852C73.9477 75.6889 74.6193 75.9188 74.972 75.9229C75.7532 75.9153 76.7731 75.1128 76.7731 73.6576C76.7731 73.0809 76.7731 69.58 76.7113 69.3534C76.7113 69.1887 76.3613 67.5 74.9609 67.5C73.7252 67.5 73.0868 68.5914 73.0868 70.898V71.9689V71.969C73.0868 73.5546 73.0868 74.0695 73.4987 74.852ZM0 65.1939C0 68.3036 2.36831 70.6719 5.47801 70.6719C8.5877 70.6719 10.9766 68.3242 10.9766 65.1939C10.9766 62.0636 8.5877 59.6953 5.47801 59.6953C2.36831 59.6953 0 62.0842 0 65.1939ZM0.967918 65.1939C0.967918 62.6196 2.90375 60.6632 5.47801 60.6632C8.05226 60.6632 9.98809 62.6196 9.98809 65.1939C9.98809 67.7681 8.05226 69.7246 5.47801 69.7246C2.90375 69.7246 0.967918 67.7681 0.967918 65.1939ZM8.05226 68.0564L6.89899 65.7087C7.558 65.4616 8.09344 64.9879 8.09344 63.9582C8.09344 62.6608 7.18731 62.0636 6.03404 62.0636H3.25385V68.0564H4.51009V65.8735H5.53979L6.63127 68.0564H8.05226ZM4.51009 63.2374H5.95167C6.46652 63.2374 6.79602 63.464 6.79602 63.9994C6.79602 64.4937 6.48711 64.782 5.95167 64.782H4.51009V63.2374Z" fill="white"/>
</svg>
