<svg width="18" height="36" viewBox="0 0 18 36" fill="none" xmlns="http://www.w3.org/2000/svg">
<g clip-path="url(#clip0_10860_23268)">
<path fill-rule="evenodd" clip-rule="evenodd" d="M8.14851 7.79849C8.28533 7.79849 9.3501 7.50107 9.75459 7.19175C10.1591 6.88243 10.3375 6.53147 10.3435 6.0437C10.3435 5.78792 10.3137 5.50239 10.165 5.2823C10.1366 5.24227 10.0892 5.19215 10.0356 5.13558L10.0356 5.13558C9.84237 4.93158 9.56983 4.64382 9.82597 4.44357C10.052 4.27107 10.052 3.9558 9.83192 3.64648C9.54749 3.24353 9.60685 2.70081 9.66075 2.20797C9.67448 2.0824 9.68786 1.96006 9.69511 1.8441C9.7308 1.32658 9.76649 0.797172 9.76649 0.273709C9.76649 -0.0356101 9.59398 -0.0356101 9.36794 0.0476681C9.31001 0.0711558 9.22693 0.0942313 9.13596 0.119499C8.88134 0.190219 8.5649 0.278109 8.5649 0.440266C8.5649 0.530822 8.6082 0.712008 8.66207 0.937419L8.66208 0.937428L8.66208 0.937436C8.73914 1.25987 8.83782 1.6728 8.86233 2.0404C8.87027 2.17349 8.89414 2.30989 8.91819 2.4474C8.96618 2.72167 9.01493 3.00032 8.93966 3.26578C8.88829 3.44692 8.74598 3.58997 8.60546 3.73123C8.43681 3.90077 8.27073 4.06772 8.26748 4.29486C8.26748 4.32723 8.26785 4.35947 8.26821 4.3916L8.26821 4.39173C8.2704 4.5839 8.27253 4.7717 8.1961 4.95514C8.17825 5.00272 8.15446 5.05031 8.12472 5.09195C7.74402 5.71654 7.61315 6.46009 7.84514 7.17391C7.85539 7.20685 7.86573 7.24115 7.87623 7.27596L7.87623 7.27598L7.87623 7.27599C7.95102 7.52405 8.03376 7.79849 8.14851 7.79849ZM10.7006 27.0181C10.3902 27.177 10.1625 27.7237 9.95608 28.2192C9.83017 28.5215 9.71219 28.8047 9.58823 28.9692C9.07667 29.6533 8.3807 29.9804 7.52412 29.57C7.2267 29.4272 7.40515 30.2957 7.69068 30.7478C7.85129 31.0036 7.94646 31.1344 8.22009 31.2712C8.27957 31.301 8.46992 31.4378 8.58294 31.5508C8.69596 31.6698 8.82683 32.0267 8.81493 32.2051C8.64243 34.531 8.83278 35.572 8.83278 35.572C8.82683 36.3691 9.6953 36.0003 9.61797 35.0009C9.5833 34.5528 9.54503 34.2362 9.51229 33.9654C9.47203 33.6323 9.44013 33.3685 9.43357 33.0141C9.42167 32.5799 9.48711 31.8304 9.52875 31.6341C9.57545 31.4473 9.69665 31.3292 9.92047 31.1112L9.93324 31.0987C10.7379 30.3112 10.902 29.3977 11.0821 28.395L11.1051 28.2673C11.1884 27.7973 11.23 27.2501 11.1051 27.1073C10.9861 26.9586 10.8255 26.9527 10.6946 27.0181H10.7006ZM11.6403 21.8308C12.9608 21.8844 13.7163 22.1937 13.9066 22.3424C14.4479 22.7647 14.1802 23.08 13.6865 22.961C13.6865 22.961 12.7288 22.854 11.4559 23.0859C11.2529 23.1229 11.0615 23.1595 10.8813 23.1938C9.93173 23.375 9.29751 23.496 8.95751 23.306C8.31188 22.948 7.87474 22.2657 7.48609 21.659L7.47039 21.6345C7.42868 21.5684 7.38679 21.5024 7.34494 21.4365L7.34487 21.4364L7.3448 21.4363L7.34474 21.4362L7.34467 21.4361L7.34465 21.4361C7.1419 21.1168 6.93996 20.7988 6.76253 20.4686C6.60192 20.1712 6.54838 19.8202 6.72089 19.618C6.90529 19.3979 7.19676 19.5526 7.48229 19.8143C7.77971 20.0879 8.20205 20.4389 8.87423 20.9445C9.77839 21.6226 10.4982 21.7892 11.6403 21.8308ZM12.9311 20.0285C12.0388 19.8203 10.867 19.2731 10.2781 18.9161C9.69511 18.5592 8.87423 18.1428 8.11282 17.7859C7.35142 17.429 5.83457 16.8044 5.83457 16.8044C3.87753 16.0371 1.24832 15.5374 1.45651 17.6729C1.55764 18.7079 2.15843 19.6716 2.90198 20.3557C3.44329 20.8553 4.3772 21.6584 5.18024 21.581C6.19171 21.484 6.21022 20.7781 6.22764 20.1142C6.23798 19.72 6.24793 19.3407 6.4651 19.1124C6.61382 18.9578 6.76253 18.8805 7.054 18.9578C7.2637 19.0145 7.80821 19.3303 8.21416 19.5658L8.27343 19.6002C8.68388 19.8382 9.59399 20.3378 10.2007 20.5936C10.9681 20.9148 12.2351 21.242 13.2344 21.1171C14.1089 21.004 14.4598 20.8553 14.6145 20.5341C14.7288 20.2927 14.1555 20.2141 13.5797 20.1352C13.3468 20.1033 13.1135 20.0713 12.9251 20.0285H12.9311ZM4.66273 18.9042C4.54376 19.3147 4.35935 19.3444 4.15711 19.2731C3.89538 19.1838 3.46709 18.7436 3.46709 18.4641C3.46709 17.8633 4.12142 18.0298 4.46048 18.2559C4.66867 18.3986 4.75195 18.5771 4.66273 18.9042ZM10.5338 23.8416C11.5213 23.5144 12.4492 23.4847 13.4783 23.5977L13.4545 23.5918C13.8709 23.6394 14.0613 23.9189 13.3594 24.1271C13.165 24.1861 12.9678 24.2399 12.7695 24.2941C11.8265 24.5518 10.8581 24.8165 10.052 25.6618C9.31441 26.4411 9.11216 26.8634 8.64818 27.9222C8.33886 28.6301 8.13662 28.761 7.63695 28.6063C7.2503 28.4814 6.77442 28.2732 6.34019 28.0531C5.78698 27.7735 5.46576 27.5237 6.14389 27.0062C6.26286 26.9229 7.39306 26.1139 7.36332 26.0306L7.35986 26.0276L7.35329 26.0228C7.34752 26.0187 7.34055 26.0138 7.33358 26.0068C7.33358 26.0068 7.21461 25.8938 7.05995 25.7689C6.83986 25.9533 6.56028 26.0663 6.19742 26.1139C5.23377 26.2388 4.43668 25.7511 4.07978 24.8469C3.85407 24.2701 3.878 23.8666 3.89362 23.6033C3.90023 23.4919 3.90534 23.4056 3.88943 23.3419C3.86736 23.2537 3.76682 23.1607 3.6291 23.0333C3.35844 22.7829 2.94417 22.3997 2.69974 21.6585C2.49749 21.0458 2.96742 21.4087 2.96742 21.4087C3.07618 21.532 3.15843 21.6342 3.22948 21.7226L3.22951 21.7226C3.3916 21.9242 3.49542 22.0533 3.72287 22.1939C4.169 22.4794 4.43668 22.4973 5.12075 22.2355C5.75724 21.9976 6.20932 22.0035 6.75658 22.2772C7.23245 22.5151 7.58936 22.7887 7.82135 23.5739C7.89868 23.8238 7.88083 24.3472 7.76187 24.7101C7.73212 24.7934 7.84514 24.8291 7.84514 24.8291C7.92247 24.9183 8.04739 25.0075 8.18421 25.1027C8.40176 25.2604 8.61932 25.075 9.06877 24.692L9.06935 24.6915C9.11128 24.6557 9.15523 24.6183 9.20139 24.5792C9.64157 24.2045 10.0758 23.9963 10.5338 23.8416ZM5.67396 24.5197C5.90595 24.7517 6.23906 24.7517 6.41752 24.5078C6.59002 24.2699 6.52459 23.9189 6.39967 23.7167C6.27475 23.5144 6.03682 23.4788 5.85241 23.5144C5.67396 23.5442 5.5312 23.6572 5.46576 23.8832C5.40033 24.139 5.53715 24.3829 5.67396 24.5197ZM4.80548 10.1482C5.23377 10.4278 5.78103 10.6182 5.87025 10.6063C5.97405 10.6005 6.17289 10.4941 6.41798 10.363L6.44131 10.3505L6.50674 10.3148C6.68519 10.2196 6.91123 10.0709 7.08969 9.94004C7.14322 9.90435 7.17296 9.84487 7.16702 9.78539C7.16702 9.60098 6.75657 9.27977 6.64355 9.20244L6.0725 8.82768H6.04871L6.03961 8.82762C5.98993 8.82718 5.83405 8.82578 5.74534 8.88122L5.58473 8.9764L5.48877 9.03139C5.31387 9.13177 5.14126 9.23085 4.96014 9.32141C4.92616 9.33921 4.87368 9.35789 4.81469 9.37889L4.81467 9.3789L4.81466 9.3789C4.65683 9.43509 4.45238 9.50787 4.43073 9.62478C4.39504 9.79728 4.66272 10.0531 4.80548 10.1482ZM3.61003 11.8076C3.51486 11.8195 2.94976 11.6053 2.50362 11.302L2.50957 11.296C2.36681 11.1949 2.08723 10.9153 2.12887 10.7369C2.15937 10.6149 2.37491 10.544 2.54185 10.489C2.60285 10.469 2.65736 10.451 2.69397 10.4335C2.92001 10.3205 3.14011 10.2015 3.3602 10.0825L3.5327 9.98737C3.62833 9.93424 3.78088 9.93805 3.83784 9.93947L3.85392 9.93978H3.87771L4.46066 10.3502C4.4856 10.3689 4.53379 10.3996 4.5944 10.4383L4.59441 10.4383C4.82296 10.584 5.22801 10.8422 5.22801 10.9927C5.22801 11.0581 5.19232 11.1116 5.13878 11.1533C5.02451 11.2318 4.80734 11.3125 4.6121 11.3851L4.61209 11.3851C4.48211 11.4334 4.36185 11.4781 4.28816 11.5161L4.21677 11.5518C3.94315 11.6946 3.71711 11.8076 3.61003 11.8076ZM6.57217 10.981L6.55724 10.9807C6.50034 10.9794 6.34079 10.9756 6.23906 11.0345L6.05466 11.1356C6.00844 11.1605 5.96223 11.1856 5.91602 11.2108L5.91546 11.2111C5.72987 11.312 5.54428 11.4128 5.35869 11.4985C5.32269 11.515 5.26967 11.5323 5.20993 11.5517C5.03276 11.6094 4.79649 11.6863 4.76979 11.8197C4.72816 12.0101 5.01963 12.3015 5.17429 12.4086C5.63827 12.7298 6.23311 12.9499 6.33424 12.944C6.44726 12.938 6.67925 12.825 6.96477 12.6703L7.03615 12.6347C7.11427 12.5944 7.2395 12.5476 7.37434 12.4971C7.57832 12.4208 7.80429 12.3363 7.92247 12.254C7.97601 12.2123 8.0117 12.1528 8.01765 12.0874C8.01765 11.9228 7.56847 11.64 7.33391 11.4923C7.28027 11.4585 7.23786 11.4318 7.21461 11.4152L6.60192 10.9869H6.57217V10.981ZM10.9619 8.11376C13.1569 7.59624 15.3102 7.59624 17.0055 9.12499H17.0174C17.5944 9.64251 17.9572 10.7311 17.1958 11.3854C16.5653 11.9327 15.798 12.0457 15.798 12.0457C15.798 12.0457 16.6843 12.5751 16.7735 13.2413C16.8568 13.8719 16.5177 14.4726 15.5779 14.7582L15.4886 14.782L15.5779 14.9009C16.2203 16.0192 15.9645 19.2374 13.9658 18.8685C12.372 18.5762 11.4991 18.2584 10.1003 17.749C9.99044 17.709 9.87729 17.6678 9.76029 17.6253C7.06564 16.6438 4.41264 15.5077 3.4133 15.0794C2.2474 14.5797 0.218981 13.6993 0.159497 13.1699C0.138521 12.9941 0.116203 12.8276 0.0951624 12.6705C-0.00909772 11.8924 -0.0819898 11.3483 0.195187 11.0761C0.485892 10.7908 0.995841 11.0998 2.06455 11.7476C2.17671 11.8155 2.29504 11.8873 2.41991 11.9624C3.25864 12.4621 4.09737 12.9498 4.97179 13.3781C5.04938 13.4156 5.12691 13.4531 5.20438 13.4906C5.83964 13.7979 6.47171 14.1037 7.11323 14.3953C8.39215 14.9783 9.68891 15.5136 11.0214 15.9538C11.0842 15.9745 11.1876 16.0134 11.3186 16.0629C12.0554 16.3409 13.669 16.9496 13.9064 16.4951C14.1383 16.049 14.1919 15.5969 13.8766 15.1686L13.7933 15.0496L13.6089 15.0615C11.7947 15.1508 9.53425 14.2228 8.27913 12.9498C8.178 12.8011 8.55275 12.6762 8.85018 12.6167C9.05758 12.5761 9.20103 12.5326 9.44781 12.4579C9.562 12.4233 9.69831 12.382 9.87331 12.3312C9.90877 12.3208 9.95172 12.3065 9.99938 12.2907C10.2236 12.2162 10.5519 12.1071 10.6942 12.2003C11.5686 12.7833 13.3294 13.8481 14.525 13.3841C14.8878 13.2413 14.876 12.6286 14.5369 12.3312C14.2297 12.0631 13.8228 12.0362 13.4147 12.0093C13.3882 12.0076 13.3618 12.0059 13.3353 12.004C12.6631 11.9624 11.9553 11.8375 11.6816 11.4568C11.5746 11.3081 11.8125 11.0701 12.1278 10.9869C12.6161 10.8541 13.1649 10.8914 13.6898 10.9271C13.8235 10.9361 13.9556 10.9451 14.0848 10.9512C14.7748 10.9809 15.1555 10.8025 15.4054 10.511C15.5898 10.2968 15.5243 9.83286 14.9354 9.62466C13.5494 9.13689 11.991 9.69604 10.7537 10.3385C10.6842 10.3744 10.6202 10.4123 10.5587 10.4487C10.3151 10.593 10.1106 10.7142 9.75434 10.6002C9.30979 10.4537 8.74084 10.1613 8.31343 9.94172C8.23755 9.90273 8.16614 9.86604 8.10067 9.83286C7.46419 9.51164 7.25004 9.35698 7.50583 9.24991C8.63008 8.78593 9.77219 8.39333 10.9619 8.11376Z" fill="#72253D"/>
</g>
<defs>
<clipPath id="clip0_10860_23268">
<rect width="18" height="36" fill="white"/>
</clipPath>
</defs>
</svg>
