<svg width="24" height="24" viewBox="0 0 24 24" fill="none" xmlns="http://www.w3.org/2000/svg">
<path d="M9 3.25C13.957 3.25 18 7.29297 18 12.25C18 17.2422 13.957 21.25 9 21.25C4.00781 21.25 0 17.2422 0 12.25C0 7.29297 4.00781 3.25 9 3.25ZM9 19.5625C9.24609 19.5625 9.91406 19.3164 10.6523 17.875C10.9688 17.2422 11.2148 16.5039 11.4258 15.625H6.53906C6.75 16.5039 6.99609 17.2422 7.3125 17.875C8.05078 19.3164 8.71875 19.5625 9 19.5625ZM6.25781 13.9375H11.707C11.7773 13.4102 11.8125 12.8477 11.8125 12.25C11.8125 11.6875 11.7773 11.125 11.707 10.5625H6.25781C6.1875 11.125 6.1875 11.6875 6.1875 12.25C6.1875 12.8477 6.1875 13.4102 6.25781 13.9375ZM11.4258 8.875C11.2148 8.03125 10.9688 7.29297 10.6523 6.66016C9.91406 5.21875 9.24609 4.9375 9 4.9375C8.71875 4.9375 8.05078 5.21875 7.3125 6.66016C6.99609 7.29297 6.75 8.03125 6.53906 8.875H11.4258ZM13.3945 10.5625C13.4648 11.125 13.5 11.6875 13.5 12.25C13.5 12.8477 13.4648 13.4102 13.3945 13.9375H16.1016C16.2422 13.4102 16.3125 12.8477 16.3125 12.25C16.3125 11.6875 16.2422 11.125 16.1016 10.5625H13.3945ZM12.0234 5.60547C12.5156 6.51953 12.9023 7.64453 13.1484 8.875H15.4688C14.7305 7.43359 13.5 6.27344 12.0234 5.60547ZM5.94141 5.60547C4.46484 6.27344 3.23438 7.43359 2.49609 8.875H4.81641C5.0625 7.64453 5.44922 6.51953 5.94141 5.60547ZM1.6875 12.25C1.6875 12.8477 1.72266 13.4102 1.86328 13.9375H4.57031C4.5 13.4102 4.5 12.8477 4.5 12.25C4.5 11.6875 4.5 11.125 4.57031 10.5625H1.86328C1.72266 11.125 1.6875 11.6875 1.6875 12.25ZM15.4688 15.625H13.1484C12.9023 16.8906 12.5156 18.0156 12.0234 18.9297C13.5 18.2617 14.7305 17.1016 15.4688 15.625ZM4.81641 15.625H2.49609C3.23438 17.1016 4.46484 18.2617 5.94141 18.9297C5.44922 18.0156 5.0625 16.8906 4.81641 15.625Z" fill="#414042"/>
</svg>
