<svg width="44" height="50" viewBox="0 0 44 50" fill="none" xmlns="http://www.w3.org/2000/svg">
<path d="M43.7443 23.4C43.7443 22.5063 43.7273 21.6088 43.6556 20.7191C43.302 16.294 41.8722 12.2538 39.2996 8.62447C39.1613 8.43009 39.0726 8.15613 39.0713 7.9187C39.0544 5.65659 39.0504 3.39578 39.0713 1.13367C39.0752 0.6575 38.967 0.279178 38.5743 0.00130584H37.9885C36.8118 0.70577 35.6377 1.41415 34.4545 2.10818C34.3645 2.16166 34.1883 2.16297 34.0983 2.10948C32.9164 1.41415 31.7423 0.705769 30.5669 0H29.9811C28.8044 0.704464 27.629 1.41154 26.4458 2.10557C26.3544 2.15905 26.1796 2.16297 26.0896 2.10948C24.9077 1.41415 23.7349 0.705769 22.5595 0H21.9737C20.797 0.704464 19.6216 1.41284 18.4397 2.10687C18.3483 2.16036 18.1735 2.16166 18.0835 2.10948C16.9016 1.41545 15.7288 0.70577 14.5521 0.00130584H13.9663C12.7896 0.70577 11.6155 1.41415 10.4335 2.10818C10.3435 2.16166 10.1674 2.16166 10.0774 2.10818C8.89547 1.41415 7.72136 0.70577 6.54464 0.00130584H5.95889C5.56491 0.279178 5.45664 0.656196 5.46185 1.13367C5.48273 3.37882 5.47751 5.62398 5.46055 7.87043C5.45925 8.10526 5.36793 8.38704 5.21921 8.56576C1.79212 12.7038 0.0100844 17.4433 0.00486618 22.8273C-0.00426576 30.4746 0.00225699 38.122 0.00225699 45.7706C0.00225699 48.3745 1.62905 50 4.23426 50C15.9988 50 27.7634 50 39.5279 50C42.1279 50 43.7495 48.3706 43.7495 45.7602C43.7495 38.3072 43.7521 30.8555 43.7456 23.4026L43.7443 23.4ZM7.04951 2.15644C7.82181 2.60652 8.57976 2.98223 9.26074 3.46492C9.9613 3.96196 10.551 3.9437 11.2541 3.46492C12.0995 2.88961 13.0192 2.42779 13.8919 1.89162C14.1685 1.72072 14.3733 1.73768 14.6434 1.90075C15.644 2.50737 16.6667 3.07877 17.666 3.688C18.077 3.93848 18.4397 3.93978 18.848 3.69322C19.8642 3.08007 20.8974 2.49693 21.9137 1.88248C22.172 1.72594 22.369 1.73246 22.6234 1.8851C23.6253 2.48911 24.6468 3.06312 25.6448 3.67365C26.07 3.93326 26.4431 3.9437 26.8697 3.68409C27.8703 3.07747 28.8931 2.50476 29.8924 1.89684C30.1651 1.73116 30.3712 1.72464 30.6438 1.89032C31.6444 2.49694 32.6685 3.06572 33.6665 3.67756C34.0957 3.94109 34.4675 3.93587 34.8915 3.67756C35.7225 3.17009 36.5692 2.69131 37.4628 2.16949V7.7752H7.04951V2.15384V2.15644ZM32.0306 47.7875V48.4345H31.4396C22.3742 48.4345 13.3088 48.4345 4.24339 48.4345C2.47832 48.4345 1.56251 47.5213 1.56251 45.7628C1.56251 38.0815 1.54947 30.3989 1.56773 22.7177C1.57947 17.8099 3.26236 13.4944 6.332 9.70074C6.46245 9.53897 6.72206 9.38894 6.92036 9.38764C16.7176 9.37329 26.5162 9.37459 36.3135 9.3759C36.3617 9.3759 36.41 9.38373 36.5196 9.39286C36.4478 9.51679 36.3983 9.62377 36.3304 9.7177C33.4604 13.711 32.0058 18.1491 32.0215 23.083C32.0476 31.3187 32.0293 39.5531 32.0293 47.7888L32.0306 47.7875ZM42.1853 45.9428C42.1853 47.4391 41.2017 48.4293 39.7171 48.4345C37.7002 48.4397 35.6847 48.4358 33.5935 48.4358V47.9036C33.5935 39.5087 33.5843 31.1125 33.5974 22.7177C33.6052 17.9743 35.1929 13.7749 38.0746 10.0399C38.1138 9.98904 38.1607 9.94469 38.2377 9.85989C38.4425 10.1678 38.646 10.4522 38.8261 10.7509C41.0047 14.3685 42.1644 18.2887 42.1788 22.5142C42.2036 30.3233 42.1879 38.1337 42.1853 45.9428Z" fill="white"/>
<path d="M27.7838 39.8413C24.1389 39.8413 20.4926 39.8413 16.8477 39.8413C13.1205 39.8413 9.39339 39.8413 5.66625 39.8413C4.96309 39.8413 4.69304 40.114 4.69044 40.8158C4.68652 42.2482 4.68652 43.6806 4.69044 45.1131C4.69174 45.8149 4.96439 46.0889 5.66494 46.0902C13.0866 46.0915 20.5083 46.0915 27.9286 46.0902C28.6292 46.0902 28.9031 45.8149 28.9057 45.1144C28.9097 43.7315 28.907 42.3474 28.9057 40.9645C28.9057 40.067 28.68 39.8413 27.7825 39.8413H27.7838ZM27.322 44.5038H6.29113V41.4381H27.322V44.5038Z" fill="white"/>
<path d="M39.0604 31.2442C39.0604 26.947 39.0604 22.6511 39.0604 18.3538C39.0604 18.1908 39.0761 18.0251 39.0474 17.8672C38.9691 17.4472 38.7069 17.1941 38.2751 17.1967C37.8433 17.1993 37.585 17.4537 37.5106 17.875C37.4858 18.0172 37.4989 18.1673 37.4989 18.3134C37.4989 26.9392 37.4989 35.5649 37.4989 44.1907C37.4989 44.3368 37.4845 44.4868 37.5119 44.629C37.5915 45.0504 37.8524 45.3022 38.2842 45.2996C38.716 45.297 38.9743 45.0413 39.0487 44.6212C39.0774 44.4634 39.0604 44.2964 39.0604 44.1333C39.0604 39.8361 39.0604 35.5401 39.0604 31.2429V31.2442Z" fill="white"/>
<path d="M17.3148 19.1925C17.3956 19.1925 18.0249 19.0168 18.2639 18.834C18.503 18.6512 18.6084 18.4438 18.6119 18.1555C18.6119 18.0043 18.5944 17.8356 18.5065 17.7055C18.4291 17.5965 18.1128 17.361 18.3061 17.2099C18.4397 17.1079 18.4397 16.9216 18.3096 16.7388C18.0987 16.44 18.2077 16.0111 18.2288 15.6736C18.2499 15.3678 18.271 15.0549 18.271 14.7456C18.271 14.5628 18.169 14.5628 18.0354 14.612C17.9054 14.6647 17.5608 14.7139 17.5608 14.844C17.5608 14.9741 17.712 15.4205 17.7366 15.7896C17.7507 16.0252 17.8491 16.2783 17.7823 16.5138C17.7155 16.7493 17.3886 16.8759 17.3851 17.122C17.3851 17.2556 17.3956 17.3856 17.3429 17.5122C17.3323 17.5403 17.3183 17.5684 17.3007 17.593C17.0757 17.9621 16.9984 18.4016 17.1355 18.8234C17.1847 18.9816 17.2374 19.1925 17.3148 19.1925Z" fill="white"/>
<path d="M18.8214 30.5507C18.5261 30.7019 18.3574 31.4471 18.164 31.7038C17.8617 32.108 17.4504 32.3014 16.9442 32.0588C16.7684 31.9744 16.8739 32.4877 17.0426 32.7549C17.1375 32.906 17.1938 32.9834 17.3555 33.0642C17.3906 33.0818 17.5031 33.1627 17.5699 33.2294C17.6367 33.2998 17.7141 33.5107 17.707 33.6161C17.6051 34.9907 17.7176 35.6058 17.7176 35.6058C17.7141 36.0769 18.2273 35.859 18.1816 35.2684C18.1359 34.6778 18.0797 34.4739 18.0726 34.0942C18.0656 33.8376 18.1043 33.3947 18.1289 33.2787C18.157 33.1662 18.2308 33.0959 18.3679 32.9623C18.8636 32.4771 18.9479 31.9112 19.0604 31.289C19.1097 31.0112 19.1343 30.6878 19.0604 30.6035C18.9901 30.5156 18.8952 30.512 18.8179 30.5507H18.8214Z" fill="white"/>
<path d="M20.7188 27.7876C20.6063 27.6997 20.1598 27.5169 19.3794 27.4853C18.7044 27.4607 18.2791 27.3623 17.7447 26.9615C17.3475 26.6627 17.0979 26.4553 16.9221 26.2936C16.7534 26.1389 16.5812 26.0475 16.4722 26.1776C16.3702 26.2971 16.4019 26.5045 16.4968 26.6803C16.6233 26.9158 16.771 27.1408 16.9151 27.3693C17.1471 27.7314 17.4073 28.1427 17.794 28.3571C18.033 28.4907 18.5181 28.3642 19.2704 28.2271C20.0227 28.09 20.5887 28.1532 20.5887 28.1532C20.8805 28.2235 21.0387 28.0372 20.7188 27.7876Z" fill="white"/>
<path d="M20.1416 26.4202C19.6143 26.2971 18.9217 25.9737 18.5737 25.7628C18.2292 25.5519 17.7441 25.3058 17.2941 25.0949C16.8441 24.8839 15.9477 24.5148 15.9477 24.5148C14.7912 24.0613 13.2374 23.766 13.3604 25.0281C13.4202 25.6397 13.7752 26.2092 14.2146 26.6135C14.5345 26.9088 15.0864 27.3834 15.561 27.3377C16.5137 27.2463 15.9758 26.2409 16.3203 25.8788C16.4082 25.7874 16.4961 25.7417 16.6684 25.7874C16.7984 25.8225 17.1465 26.0264 17.389 26.1671C17.6316 26.3077 18.1694 26.603 18.528 26.7541C18.9815 26.944 19.7303 27.1373 20.3209 27.0635C20.8376 26.9967 21.045 26.9088 21.1364 26.719C21.2313 26.5186 20.5247 26.508 20.1381 26.4202H20.1416ZM15.2552 25.7558C15.1849 25.9983 15.0759 26.0159 14.9564 25.9737C14.8017 25.921 14.5486 25.6608 14.5486 25.4956C14.5486 25.1406 14.9353 25.239 15.1357 25.3726C15.2587 25.4569 15.3079 25.5624 15.2552 25.7558Z" fill="white"/>
<path d="M20.4632 28.5292C19.8551 28.4624 19.3067 28.48 18.7231 28.6733C18.4524 28.7647 18.1958 28.8878 17.9357 29.1092C17.6158 29.3799 17.4752 29.5205 17.3345 29.4186C17.2537 29.3623 17.1799 29.3096 17.1342 29.2569C17.1342 29.2569 17.0674 29.2358 17.0849 29.1866C17.1553 28.9721 17.1658 28.6628 17.1201 28.5151C16.983 28.0511 16.7721 27.8894 16.4908 27.7488C16.1674 27.5871 15.9003 27.5836 15.5241 27.7242C15.1198 27.8788 14.9617 27.8683 14.698 27.6996C14.5047 27.58 14.4625 27.4746 14.2515 27.2355C14.2515 27.2355 13.9738 27.0211 14.0934 27.3832C14.3113 28.0441 14.7578 28.2234 14.7964 28.378C14.8281 28.5046 14.7191 28.7823 14.9089 29.2674C15.1198 29.8018 15.5909 30.09 16.1604 30.0162C16.3748 29.9881 16.5401 29.9213 16.6701 29.8123C16.7615 29.8861 16.8318 29.9529 16.8318 29.9529C16.8389 29.96 16.8459 29.9635 16.8494 29.967C16.867 30.0162 16.1991 30.4943 16.1288 30.5435C15.728 30.8493 15.9178 30.997 16.2448 31.1622C16.5014 31.2923 16.7826 31.4153 17.0111 31.4891C17.3064 31.5805 17.4259 31.5032 17.6087 31.0849C17.8829 30.4591 18.0025 30.2095 18.4384 29.749C19.0149 29.1444 19.732 29.0424 20.3929 28.8421C20.8077 28.719 20.6952 28.5538 20.4492 28.5257L20.4632 28.5292ZM16.2905 29.067C16.185 29.2112 15.9881 29.2112 15.851 29.0741C15.7702 28.9932 15.6893 28.8491 15.728 28.6979C15.7667 28.5643 15.851 28.4976 15.9565 28.48C16.0655 28.4589 16.2061 28.48 16.2799 28.5995C16.3537 28.719 16.3924 28.9264 16.2905 29.067Z" fill="white"/>
<path d="M15.3376 20.5813C15.5908 20.7465 15.9142 20.859 15.9669 20.852C16.0302 20.8485 16.1532 20.7817 16.3044 20.7008L16.343 20.6797C16.4485 20.6235 16.5821 20.5356 16.6876 20.4583C16.7192 20.4372 16.7368 20.402 16.7333 20.3669C16.7333 20.2579 16.4907 20.068 16.4239 20.0223L16.0864 19.8009H16.0724C16.0513 19.8009 15.9493 19.7974 15.8931 19.8325L15.7982 19.8888C15.6751 19.9591 15.5556 20.0294 15.429 20.0927C15.3552 20.1313 15.1338 20.177 15.1162 20.2719C15.0951 20.3739 15.2533 20.525 15.3376 20.5813Z" fill="white"/>
<path d="M13.9759 21.2631C14.2395 21.4424 14.5735 21.569 14.6298 21.5619C14.693 21.5619 14.8266 21.4951 14.9883 21.4108L15.0305 21.3897C15.1395 21.3334 15.4207 21.2526 15.5332 21.1752C15.5648 21.1506 15.5859 21.119 15.5859 21.0803C15.5859 20.9678 15.2028 20.7534 15.1325 20.7007L14.7879 20.4581H14.7739C14.7528 20.4581 14.6473 20.4511 14.5841 20.4862L14.4821 20.5425C14.352 20.6128 14.222 20.6831 14.0884 20.7499C14.0075 20.7885 13.779 20.8307 13.7544 20.9292C13.7298 21.0346 13.895 21.1998 13.9794 21.2596L13.9759 21.2631Z" fill="white"/>
<path d="M16.383 21.0733C16.3619 21.0733 16.2529 21.0662 16.1861 21.1049L16.0771 21.1647C15.94 21.2385 15.8029 21.3158 15.6658 21.3791C15.5815 21.4178 15.3389 21.4635 15.3178 21.5689C15.2932 21.6814 15.4655 21.8537 15.5569 21.9169C15.8311 22.1068 16.1826 22.2368 16.2424 22.2333C16.3091 22.2298 16.4462 22.163 16.615 22.0716L16.6572 22.0505C16.7732 21.9908 17.065 21.9064 17.181 21.8255C17.2126 21.8009 17.2337 21.7658 17.2372 21.7271C17.2372 21.6076 16.8365 21.3826 16.7626 21.3299L16.4005 21.0768H16.383V21.0733Z" fill="white"/>
<path d="M22.5487 19.9764C21.5468 19.073 20.2742 19.073 18.977 19.3788C18.274 19.544 17.599 19.776 16.9346 20.0502C16.7834 20.1135 16.91 20.2049 17.2861 20.3947C17.5428 20.5248 17.9541 20.7463 18.2634 20.8482C18.5271 20.9326 18.6501 20.799 18.854 20.6936C19.5852 20.3139 20.5062 19.9834 21.3253 20.2717C21.6733 20.3947 21.712 20.6689 21.603 20.7955C21.4554 20.9678 21.2304 21.0732 20.8226 21.0556C20.4465 21.0381 20.0281 20.9783 19.6661 21.0767C19.4797 21.1259 19.3391 21.2666 19.4024 21.3544C19.5641 21.5794 19.9824 21.6533 20.3797 21.6779C20.6363 21.6954 20.8964 21.7025 21.0898 21.8712C21.2902 22.047 21.2972 22.4091 21.0828 22.4934C20.3762 22.7676 19.3356 22.1384 18.8188 21.7939C18.7169 21.7271 18.4532 21.8361 18.3337 21.8712C18.0068 21.9661 17.9084 22.0048 17.7291 22.0399C17.5533 22.0751 17.3318 22.1489 17.3916 22.2368C18.1333 22.9891 19.4692 23.5375 20.5414 23.4848L20.6504 23.4777L20.6996 23.548C20.8859 23.8012 20.8543 24.0683 20.7172 24.332C20.5519 24.6484 19.2583 24.0929 19.0122 24.0121C18.2247 23.7519 17.4584 23.4356 16.7026 23.091C16.2772 22.8977 15.8589 22.6938 15.437 22.4899C14.9203 22.2368 14.4246 21.9485 13.929 21.6533C13.1521 21.1857 12.804 20.9431 12.6142 21.1295C12.4173 21.3228 12.5193 21.7482 12.5931 22.3669C12.6283 22.6797 13.827 23.2 14.516 23.4953C15.1066 23.7484 16.6745 24.4199 18.2669 24.9999C19.2161 25.3444 19.7364 25.5483 20.7523 25.7346C21.9335 25.9526 22.0846 24.0507 21.705 23.3899L21.6522 23.3195L21.705 23.3055C22.2604 23.1367 22.4608 22.7817 22.4116 22.4091C22.3588 22.0153 21.835 21.7025 21.835 21.7025C21.835 21.7025 22.2885 21.6357 22.6612 21.3123C23.1111 20.9256 22.8967 20.2823 22.5557 19.9764H22.5487Z" fill="white"/>
</svg>
