<?xml version="1.0" encoding="UTF-8"?>
<!DOCTYPE svg PUBLIC "-//W3C//DTD SVG 1.1//EN" "http://www.w3.org/Graphics/SVG/1.1/DTD/svg11.dtd">
<!-- Creator: CorelDRAW 2020 (64-Bit) -->
<svg xmlns="http://www.w3.org/2000/svg" xml:space="preserve" width="45px" height="58px" version="1.1" style="shape-rendering:geometricPrecision; text-rendering:geometricPrecision; image-rendering:optimizeQuality; fill-rule:evenodd; clip-rule:evenodd"
viewBox="0 0 45 58.24"
 xmlns:xlink="http://www.w3.org/1999/xlink"
 xmlns:xodm="http://www.corel.com/coreldraw/odm/2003">
 <defs>
  <style type="text/css">
   <![CDATA[
    .fil0 {fill:#2B2A29;fill-rule:nonzero}
   ]]>
  </style>
 </defs>
 <g id="Layer_x0020_1">
  <metadata id="CorelCorpID_0Corel-Layer"/>
  <path class="fil0" d="M12.76 18.21c0,0.69 0,1.32 0,1.96 -0.01,0.57 -0.26,0.82 -0.82,0.83 -1.08,0 -2.15,0 -3.22,0 -0.58,-0.01 -0.83,-0.25 -0.83,-0.82 -0.01,-0.64 -0.01,-1.27 -0.01,-1.95 -0.48,0 -0.94,-0.04 -1.4,0.01 -0.2,0.03 -0.4,0.21 -0.56,0.37 -0.33,0.32 -0.69,0.39 -1,0.15 -0.32,-0.25 -0.36,-0.67 -0.08,-1.04 0.43,-0.57 1.01,-0.89 1.72,-0.9 2.51,-0.01 5.01,-0.03 7.52,0.02 0.51,0.01 1,0.29 1.55,0.47 0.85,-2.27 2.04,-4.39 4.85,-5.24 -0.18,-0.11 -0.29,-0.16 -0.37,-0.23 -1.85,-1.73 -2.31,-4.36 -1.16,-6.61 1.12,-2.2 3.65,-3.42 6.06,-2.93 2.42,0.49 4.23,2.54 4.44,5.01 0.04,0.47 0.07,0.94 -0.51,1.15 -0.06,0.03 -0.12,0.18 -0.1,0.25 0.14,0.46 0.2,1 0.48,1.37 0.54,0.72 0.36,1.49 -0.23,2.01 -0.25,0.22 -0.39,0.47 -0.5,0.77 -0.3,0.88 -0.89,1.33 -2.03,1.58 0.56,0.77 1.01,1.58 1.81,2.1 0.53,0.34 1.15,0.36 1.73,0.26 1.18,-0.2 2.22,-0.04 3.05,0.96 0.46,-1.12 1.21,-1.87 2.35,-2.19 0.29,-0.08 0.59,-0.13 0.89,-0.14 0.44,-0.01 0.73,0.26 0.73,0.7 0.01,1.85 0.01,3.71 0,5.57 0,0.43 -0.31,0.7 -0.74,0.68 -0.4,-0.03 -0.8,-0.12 -1.22,-0.19 0.01,0.06 0.03,0.15 0.06,0.23 0.75,1.75 1.5,3.49 2.24,5.24 0.1,0.24 0.23,0.3 0.48,0.31 3.17,0.08 5.56,2.65 5.45,5.84 -0.1,3.02 -2.73,5.41 -5.83,5.29 -2.57,-0.1 -4.75,-2.03 -5.22,-4.61 -0.01,-0.07 -0.02,-0.14 -0.04,-0.23l-10.52 0c-0.62,3.35 -3.31,4.85 -5.61,4.8 -2.79,-0.06 -4.89,-1.91 -5.46,-4.83 -0.59,0 -1.19,0 -1.8,0 -0.83,0 -1.04,-0.2 -1.02,-1.02 0.04,-1.92 0.48,-3.76 1.35,-5.48 0.2,-0.39 0.49,-0.74 0.76,-1.16 -0.67,0 -1.33,0 -1.99,0 -0.42,0 -0.84,0 -1.26,0 -1.23,-0.01 -2.05,-0.66 -2.33,-1.86 -0.01,-0.07 -0.03,-0.14 -0.05,-0.23 -0.87,0 -1.72,0 -2.58,0 -0.55,0 -0.86,-0.26 -0.87,-0.69 0,-0.44 0.32,-0.7 0.86,-0.7 0.86,-0.01 1.71,0 2.59,0l0 -1.39c-0.42,0 -0.84,0 -1.26,-0.01 -0.48,0 -0.79,-0.27 -0.8,-0.67 -0.01,-0.43 0.31,-0.71 0.81,-0.72 1.09,0 2.18,0 3.26,0 0.49,0.01 0.79,0.28 0.8,0.68 0.01,0.43 -0.3,0.7 -0.81,0.72 -0.17,0 -0.35,0 -0.55,0l0 1.39c0.42,0 0.83,-0.01 1.25,0 0.5,0.01 0.82,0.29 0.81,0.71 -0.01,0.41 -0.32,0.67 -0.8,0.68 -0.42,0.01 -0.83,0 -1.29,0 0.13,0.47 0.41,0.69 0.83,0.69 2.45,0.01 4.9,0.01 7.35,0 0.54,0 0.87,-0.33 0.87,-0.88 0.01,-1.72 0.01,-3.45 0,-5.18 0,-0.57 -0.33,-0.88 -0.9,-0.9 -0.37,0 -0.75,0 -1.19,0l0.01 0zm9.66 14.6c-0.81,-1.67 -0.58,-1.76 -0.61,-3.19 -0.01,-0.31 0,-0.61 0,-0.91 0,-1.33 -0.82,-2.14 -2.14,-2.14 -1.99,0 -3.97,0.02 -5.96,-0.01 -1.64,-0.03 -2.75,0.69 -3.41,2.18 -0.57,1.29 -0.93,2.63 -1.02,4.07l13.14 0 0 0zm-0.48 -11.13c0.49,-0.93 0.94,-1.81 1.43,-2.73 -0.21,-0.3 -0.49,-0.69 -0.75,-1.09 -0.25,-0.4 -0.18,-0.8 0.17,-1.03 0.35,-0.22 0.74,-0.11 1,0.29 0.04,0.06 0.07,0.13 0.11,0.19 0.8,1.29 1.93,2.18 3.36,2.68 0.2,0.07 0.41,0.11 0.56,0.15 0.18,-0.72 0.35,-1.4 0.52,-2.11 -1.06,-0.34 -1.78,-1.18 -2.43,-2.1 -0.24,-0.34 -0.49,-0.68 -0.75,-1.02 -0.83,-1.07 -1.93,-1.57 -3.28,-1.58 -1.64,0 -2.84,0.79 -3.74,2.09 -0.94,1.35 -1.42,2.88 -1.72,4.47 -0.11,0.58 -0.15,1.18 -0.23,1.79l5.75 0 0 0zm7.74 0.15c0.59,2.56 1.21,5.19 1.81,7.83 0.09,0.4 0.15,0.85 0.07,1.24 -0.12,0.66 -0.36,1.29 -0.55,1.93 0.6,0 1.25,-0.01 1.9,0.01 0.28,0.01 0.44,-0.08 0.6,-0.31 0.85,-1.21 1.71,-2.41 2.58,-3.61 0.18,-0.25 0.21,-0.45 0.08,-0.74 -1,-2.28 -1.97,-4.57 -2.95,-6.86 -0.06,-0.13 -0.12,-0.25 -0.14,-0.28 -1.16,0.27 -2.26,0.52 -3.4,0.79l0 0zm-1.7 -14.76c-0.18,-1.95 -2.16,-3.56 -4.22,-3.48 -2.18,0.08 -4.01,1.95 -4.04,4.12 -0.03,2.04 1.6,3.99 3.48,4.13 0,-0.62 0,-1.24 0,-1.86 0.02,-1.67 1.25,-2.9 2.93,-2.91 0.6,-0.01 1.21,0 1.85,0l0 0zm-4.8 22.95l2.79 0c0,-1.32 0.01,-2.6 0,-3.89 0,-0.21 -0.06,-0.43 -0.12,-0.64 -0.38,-1.45 -1.68,-2.39 -3.38,-2.4 -1.98,-0.02 -3.97,-0.01 -5.95,-0.01 -0.08,0 -0.17,0.02 -0.25,0.02 -0.03,0.7 -0.06,1.37 -0.09,2.07 1.2,0 2.43,0 3.66,0 1.72,0.01 3.12,1.23 3.33,2.95 0.07,0.61 0.01,1.24 0.01,1.9l0 0zm4.2 -0.02c0.49,0.33 0.98,0.56 1.33,0.92 0.34,0.36 0.53,0.86 0.81,1.32 0.63,-0.55 0.8,-1.31 0.63,-2.1 -0.61,-2.76 -1.26,-5.5 -1.9,-8.25 -0.03,-0.1 -0.13,-0.25 -0.22,-0.27 -1.32,-0.22 -2.51,-0.76 -3.63,-1.64 -0.33,0.6 -0.63,1.16 -0.95,1.75 0.16,0.07 0.23,0.1 0.29,0.12 2.3,0.56 3.64,2.28 3.64,4.65 0,1.2 0,2.41 0,3.5l0 0zm6.37 4.25c0,0.06 -0.01,0.1 -0.01,0.14 0.37,2.05 2.51,3.59 4.57,3.29 2.29,-0.32 3.91,-2.32 3.68,-4.55 -0.24,-2.2 -2.19,-3.92 -4.31,-3.77 -0.09,0 -0.22,0.02 -0.27,0.09 -0.42,0.57 -0.83,1.15 -1.31,1.83 1.86,-0.91 3.47,-0.5 4.22,0.99 0.68,1.37 0.14,3.02 -1.21,3.73 -1.35,0.71 -3.33,0.24 -4.02,-1.75l-1.34 0 0 0zm-21.59 -0.02c0.2,2.01 2.23,3.61 4.36,3.47 1.91,-0.12 3.81,-1.86 3.76,-3.47 -0.28,0 -0.58,0.02 -0.86,-0.01 -0.35,-0.03 -0.52,0.09 -0.67,0.43 -0.45,1.01 -1.28,1.56 -2.38,1.62 -1.07,0.05 -2.01,-0.36 -2.46,-1.32 -0.34,-0.72 -0.79,-0.79 -1.41,-0.72 -0.1,0.01 -0.2,0 -0.34,0zm15.93 -23.15c-0.3,-0.92 -0.56,-1.75 -0.84,-2.62 -0.39,0 -0.85,-0.02 -1.31,0.01 -0.71,0.04 -1.3,0.61 -1.33,1.32 -0.04,0.93 -0.01,1.87 -0.01,2.87 0.53,0.12 1.04,0.28 1.56,0.33 0.76,0.08 1.09,-0.26 1.23,-1.02 0.05,-0.24 0.24,-0.46 0.4,-0.66 0.09,-0.12 0.25,-0.19 0.3,-0.23zm-4.73 20.37c0.34,0.87 1.05,1.37 1.93,1.38 0.68,0.01 1.36,0.01 2.04,0 0.24,0 0.48,-0.02 0.72,-0.04 -0.01,-0.73 -0.45,-1.3 -1.1,-1.33 -1.18,-0.04 -2.36,-0.01 -3.59,-0.01l0 0zm9.11 -11.84c-0.45,-1.33 -1.08,-1.75 -2.05,-1.41 -0.8,0.29 -1.31,1.3 -1.02,2.09 1.07,0.05 2.08,-0.19 3.07,-0.68zm3.24 1.19l0 -3.79c-0.78,0.19 -1.37,1 -1.37,1.89 0,0.89 0.58,1.7 1.37,1.9zm0.95 12.03c0.39,0 0.72,0 1.05,0 0.5,0.01 0.82,0.29 0.81,0.72 -0.01,0.4 -0.32,0.67 -0.8,0.68 -0.34,0 -0.67,0 -1.05,0 0.38,0.59 0.95,0.8 1.53,0.64 0.61,-0.18 1.01,-0.7 1.02,-1.31 0.01,-0.62 -0.38,-1.16 -0.97,-1.35 -0.6,-0.19 -1.16,0.01 -1.6,0.62l0.01 0zm-25.31 -14.59l-2.05 0 0 1.34 2.05 0 0 -1.34zm6.01 16.03l-2.26 0c0.55,0.92 1.92,0.75 2.26,0z"/>
 </g>
</svg>
